<svg width="25" height="24" viewBox="0 0 25 24" fill="none" xmlns="http://www.w3.org/2000/svg">
<g clip-path="url(#clip0_5594_75085)">
<path fill-rule="evenodd" clip-rule="evenodd" d="M7.66406 6C7.66406 4.74659 8.06463 4.08564 8.6203 3.68873C9.24321 3.2438 10.2408 3 11.6641 3H13.6641C15.0873 3 16.0849 3.2438 16.7078 3.68873C17.2635 4.08564 17.6641 4.74659 17.6641 6V7V8H18.6641C20.8732 8 22.6641 9.79086 22.6641 12C22.6641 14.2091 20.8732 16 18.6641 16H12.6641V18H17.6641C17.6641 19.2534 17.2635 19.9144 16.7078 20.3113C16.0849 20.7562 15.0873 21 13.6641 21H11.6641C10.2408 21 9.24321 20.7562 8.6203 20.3113C8.06463 19.9144 7.66406 19.2534 7.66406 18V17V16H6.66406C4.45492 16 2.66406 14.2091 2.66406 12C2.66406 9.79086 4.45492 8 6.66406 8H12.6641V6H7.66406ZM5.66406 6.08296V6C5.66406 4.25341 6.2635 2.91436 7.45782 2.06127C8.58492 1.2562 10.0873 1 11.6641 1H13.6641C15.2408 1 16.7432 1.2562 17.8703 2.06127C19.0646 2.91436 19.6641 4.25341 19.6641 6V6.08296C22.5018 6.55904 24.6641 9.027 24.6641 12C24.6641 14.973 22.5018 17.441 19.6641 17.917V18C19.6641 19.7466 19.0646 21.0856 17.8703 21.9387C16.7432 22.7438 15.2408 23 13.6641 23H11.6641C10.0873 23 8.58492 22.7438 7.45782 21.9387C6.2635 21.0856 5.66406 19.7466 5.66406 18V17.917C2.82635 17.441 0.664062 14.973 0.664062 12C0.664062 9.027 2.82635 6.55904 5.66406 6.08296Z" fill="#484851"/>
</g>
<defs>
<clipPath id="clip0_5594_75085">
<rect width="24" height="24" fill="white" transform="translate(0.75)"/>
</clipPath>
</defs>
</svg>
