<svg width="25" height="24" viewBox="0 0 25 24" fill="none" xmlns="http://www.w3.org/2000/svg">
<g clip-path="url(#clip0_5594_75080)">
<path fill-rule="evenodd" clip-rule="evenodd" d="M6.30078 19.7965V12.7106H10.0801C11.4316 12.9528 12.7832 13.6871 14.1328 14.5368H16.6094C17.7285 14.6032 18.3164 15.7399 17.2285 16.4899C16.3594 17.1246 15.2148 17.0895 14.041 16.984C13.2305 16.945 13.1953 18.0329 14.041 18.0368C14.334 18.0582 14.6523 17.9899 14.9316 17.9899C16.3965 17.9899 17.6035 17.7086 18.3418 16.5504L18.7188 15.6813L22.4004 13.8551C24.2441 13.2477 25.5527 15.1754 24.1953 16.5153C21.6272 18.3918 18.8794 20.0091 15.9922 21.3434C13.9609 22.5797 11.9277 22.5368 9.89648 21.3434L6.30273 19.7965H6.30078ZM1.35547 12.0289H4.91016C5.07042 12.03 5.22383 12.0941 5.33716 12.2074C5.45048 12.3207 5.5146 12.4742 5.51562 12.6344V19.902C5.51511 20.0624 5.45115 20.2161 5.33772 20.3296C5.22428 20.443 5.07058 20.5069 4.91016 20.5075H1.35547C1.19505 20.5069 1.04134 20.443 0.927907 20.3296C0.814471 20.2161 0.750515 20.0624 0.75 19.902L0.75 12.6344C0.751024 12.4742 0.815143 12.3207 0.928469 12.2074C1.0418 12.0941 1.1952 12.03 1.35547 12.0289ZM3.92383 17.7692C4.06151 17.7688 4.19621 17.8093 4.31086 17.8855C4.4255 17.9618 4.51492 18.0704 4.56779 18.1975C4.62066 18.3246 4.63459 18.4646 4.60783 18.5997C4.58106 18.7347 4.5148 18.8588 4.41744 18.9562C4.32008 19.0535 4.19601 19.1198 4.06095 19.1465C3.92589 19.1733 3.78592 19.1594 3.65879 19.1065C3.53166 19.0536 3.42309 18.9642 3.34684 18.8496C3.27058 18.7349 3.23008 18.6002 3.23047 18.4625C3.23047 18.2786 3.30352 18.1023 3.43355 17.9723C3.56358 17.8422 3.73994 17.7692 3.92383 17.7692ZM20.9473 7.30043C20.9166 7.27396 20.8809 7.25393 20.8423 7.24151C20.8037 7.2291 20.763 7.22456 20.7227 7.22816C20.6415 7.23741 20.5672 7.27808 20.5156 7.34145L20.2168 7.70277C20.1222 7.65281 20.0236 7.61099 19.9219 7.57777C19.8205 7.54333 19.7176 7.514 19.6133 7.48988L19.5664 6.98402C19.5588 6.90425 19.5202 6.83064 19.459 6.77895C19.4286 6.75287 19.3931 6.73348 19.3547 6.72204C19.3164 6.7106 19.276 6.70736 19.2363 6.71254L18.5996 6.77504C18.5236 6.78597 18.4542 6.82415 18.4043 6.88246C18.3765 6.91245 18.3554 6.94795 18.3423 6.98665C18.3292 7.02535 18.3243 7.06638 18.3281 7.10707L18.3711 7.56996C18.2683 7.60352 18.1684 7.64532 18.0723 7.69496C17.9778 7.74253 17.8865 7.79602 17.7988 7.85512L17.3965 7.5309C17.367 7.50454 17.3322 7.48467 17.2946 7.47256C17.2569 7.46045 17.2171 7.45637 17.1777 7.46059C17.097 7.46973 17.0229 7.5096 16.9707 7.57191L16.5801 8.0602C16.554 8.09085 16.5343 8.12643 16.5222 8.16482C16.5102 8.20322 16.5059 8.24364 16.5097 8.28371C16.5135 8.32378 16.5254 8.36268 16.5445 8.39809C16.5636 8.4335 16.5897 8.46472 16.6211 8.48988L16.9609 8.79066C16.9113 8.88513 16.8701 8.98383 16.8379 9.08559C16.8027 9.1891 16.7734 9.2809 16.748 9.39418L16.2441 9.44106C16.2044 9.44403 16.1656 9.45488 16.13 9.47299C16.0945 9.4911 16.0629 9.51609 16.0371 9.54652C16.0135 9.57839 15.9966 9.61475 15.9875 9.65338C15.9785 9.69201 15.9774 9.73208 15.9844 9.77113L16.0469 10.4059C16.0542 10.4863 16.0928 10.5606 16.1543 10.6129C16.1844 10.6396 16.2198 10.6596 16.2582 10.6717C16.2965 10.6839 16.337 10.6878 16.377 10.6832L16.8398 10.6383C16.8715 10.7413 16.912 10.8412 16.9609 10.9371C17.0078 11.0309 17.0645 11.1325 17.1211 11.2164L16.7969 11.6071C16.7704 11.6365 16.7505 11.6712 16.7384 11.7089C16.7262 11.7466 16.7222 11.7865 16.7266 11.8258C16.7349 11.9068 16.7749 11.9812 16.8379 12.0329L17.3301 12.4391C17.3607 12.4653 17.3966 12.4848 17.4353 12.4963C17.474 12.5077 17.5147 12.5108 17.5547 12.5055C17.6361 12.4978 17.7115 12.4594 17.7656 12.3981L18.0664 12.0329C18.1609 12.0825 18.2596 12.1237 18.3613 12.1559C18.4648 12.1911 18.5566 12.2204 18.6699 12.2457L18.7188 12.7555C18.7273 12.8356 18.7656 12.9095 18.8262 12.9625C18.8571 12.9882 18.8931 13.0072 18.9317 13.0183C18.9704 13.0294 19.0109 13.0324 19.0508 13.027L19.6855 12.9645C19.7653 12.9567 19.8388 12.9181 19.8906 12.8571C19.9173 12.827 19.9373 12.7916 19.9494 12.7532C19.9616 12.7149 19.9655 12.6744 19.9609 12.6344L19.916 12.1715C20.0191 12.138 20.1191 12.0955 20.2148 12.0446C20.3109 11.9965 20.4041 11.943 20.4941 11.8844L20.8848 12.2086C20.9153 12.2353 20.951 12.2554 20.9897 12.2679C21.0283 12.2803 21.069 12.2847 21.1094 12.2809C21.1498 12.277 21.189 12.265 21.2246 12.2455C21.2601 12.2261 21.2914 12.1996 21.3164 12.1676L21.7227 11.6754C21.7486 11.6446 21.7679 11.6087 21.7793 11.5701C21.7907 11.5314 21.794 11.4908 21.7891 11.4508C21.7806 11.3696 21.7423 11.2945 21.6816 11.2399L21.3145 10.945C21.3648 10.8505 21.4066 10.7519 21.4395 10.65C21.4744 10.5489 21.5037 10.4458 21.5273 10.3414L22.0332 10.2946C22.1095 10.286 22.1795 10.2482 22.2285 10.1891C22.2545 10.1583 22.2739 10.1224 22.2853 10.0838C22.2967 10.0451 22.3 10.0045 22.2949 9.96449L22.2324 9.32973C22.2243 9.24955 22.1859 9.17551 22.125 9.1227C22.0944 9.09618 22.0587 9.07626 22.02 9.06416C21.9814 9.05207 21.9407 9.04806 21.9004 9.05238L21.4375 9.09535C21.4023 8.99349 21.3599 8.89428 21.3105 8.79848C21.2658 8.70255 21.2122 8.61101 21.1504 8.52504L21.4766 8.1227C21.5026 8.09298 21.5223 8.05823 21.5344 8.02061C21.5465 7.98298 21.5507 7.94328 21.5469 7.90395C21.5385 7.82295 21.4985 7.74853 21.4355 7.69691L20.9473 7.30629H20.9316L20.9473 7.30043ZM9.79492 4.91176V4.64027H10.3203V4.91176L10.4609 4.92543C10.582 4.9391 10.6934 4.95473 10.7988 4.97426C10.9043 4.99379 10.9941 5.01137 11.082 5.03285V5.69301C10.9492 5.68129 10.8008 5.67152 10.6348 5.66371C10.4688 5.6559 10.3184 5.65394 10.1836 5.65394C10.1109 5.65316 10.0384 5.65904 9.9668 5.67152C9.91171 5.67934 9.86011 5.7031 9.81836 5.73988C9.80024 5.75814 9.78621 5.78003 9.77718 5.80411C9.76816 5.82819 9.76435 5.85392 9.76601 5.87958C9.76767 5.90525 9.77477 5.93027 9.78682 5.95299C9.79887 5.9757 9.81562 5.9956 9.83594 6.01137C9.89858 6.0535 9.97353 6.07344 10.0488 6.06801H10.334C10.5089 6.06154 10.6826 6.10057 10.8379 6.18129C10.9678 6.25278 11.0733 6.36165 11.1406 6.49379C11.2177 6.6739 11.2541 6.86876 11.2474 7.06455C11.2406 7.26034 11.1909 7.45223 11.1016 7.6266C11.0071 7.7712 10.8623 7.8756 10.6953 7.91957C10.5737 7.95479 10.4486 7.97705 10.3223 7.98598V8.32777H9.79492V7.98793H9.75391C9.66406 7.98793 9.60352 7.9723 9.51562 7.96254L9.26367 7.92348C9.18164 7.90785 9.10352 7.89027 9.0293 7.87074V7.20277L9.34766 7.22426L9.69336 7.23793H10.0195C10.0995 7.23914 10.1794 7.23194 10.2578 7.21644C10.3109 7.2065 10.3602 7.18218 10.4004 7.14613C10.4179 7.13125 10.4317 7.1124 10.4405 7.09114C10.4492 7.06989 10.4528 7.04684 10.4509 7.02392C10.449 7.001 10.4417 6.97886 10.4295 6.95936C10.4173 6.93985 10.4006 6.92353 10.3809 6.91176C10.3355 6.87881 10.2806 6.86166 10.2246 6.86293H9.99414C9.72214 6.88163 9.4523 6.80344 9.23242 6.64223C8.85938 6.32582 8.88672 5.44301 9.25781 5.13637C9.40985 5.00863 9.59721 4.93028 9.79492 4.91176ZM12.8711 2.49379C12.8474 2.47292 12.8194 2.45758 12.7891 2.44887C12.7685 2.44397 12.7471 2.44397 12.7266 2.44887C12.6974 2.4517 12.669 2.45963 12.6426 2.4723C12.6185 2.48486 12.5978 2.50293 12.582 2.52504L12.0879 3.11098C12.0441 3.16303 11.9838 3.19856 11.917 3.2117C11.8502 3.22485 11.781 3.2148 11.7207 3.18324C11.6534 3.14718 11.5843 3.11459 11.5137 3.08559C11.4375 3.05238 11.3613 3.02504 11.2852 2.99965C11.209 2.97426 11.1328 2.95082 11.0449 2.92543C10.957 2.90004 10.8848 2.88051 10.8086 2.86293C10.7449 2.84871 10.6877 2.81377 10.646 2.76359C10.6043 2.7134 10.5804 2.6508 10.5781 2.58559L10.5156 1.78676C10.5119 1.75816 10.5033 1.73042 10.4902 1.70473C10.4781 1.68266 10.4622 1.66285 10.4434 1.64613C10.4256 1.62967 10.4042 1.61762 10.3809 1.61098C10.353 1.6068 10.3247 1.6068 10.2969 1.61098L9.26172 1.71449C9.23344 1.71741 9.20577 1.72465 9.17969 1.73598C9.15407 1.75036 9.13098 1.76883 9.11133 1.79066C9.09583 1.8113 9.08395 1.83442 9.07617 1.85902C9.07315 1.88106 9.07315 1.9034 9.07617 1.92543L9.14844 2.6852C9.1548 2.75391 9.13703 2.82269 9.09818 2.87972C9.05933 2.93675 9.00182 2.97847 8.93555 2.9977C8.87175 3.01853 8.79948 3.04587 8.71875 3.07973C8.6465 3.10866 8.57606 3.14192 8.50781 3.17934H8.49609C8.42969 3.21254 8.35938 3.24965 8.30078 3.28871L8.28125 3.30043C8.21484 3.33949 8.15039 3.38051 8.08594 3.41957C8.03395 3.4552 7.97185 3.47312 7.90887 3.47065C7.84589 3.46819 7.78538 3.44548 7.73633 3.4059L7.05469 2.87074C7.03293 2.85132 7.00777 2.83609 6.98047 2.82582C6.96059 2.82086 6.9398 2.82086 6.91992 2.82582C6.89126 2.8292 6.86345 2.83781 6.83789 2.85121H6.82617C6.80761 2.86349 6.79112 2.87865 6.77734 2.89613L6.12109 3.69301C6.10138 3.71675 6.08615 3.74389 6.07617 3.77309C6.07141 3.79497 6.07141 3.81761 6.07617 3.83949V3.85316C6.07979 3.87692 6.08703 3.89997 6.09766 3.92152V3.93129C6.11059 3.95051 6.1264 3.96764 6.14453 3.98207L6.73047 4.47621C6.78393 4.51944 6.8206 4.57999 6.83415 4.6474C6.8477 4.7148 6.83728 4.78482 6.80469 4.84535C6.76896 4.91186 6.73701 4.98033 6.70898 5.05043C6.67578 5.13051 6.64648 5.20668 6.62305 5.27894C6.59961 5.35121 6.57422 5.43129 6.54883 5.51723C6.52344 5.60316 6.50391 5.68129 6.48633 5.75551C6.472 5.81737 6.43834 5.87306 6.39023 5.9145C6.34211 5.95594 6.28205 5.98097 6.21875 5.98598L5.41406 6.05824C5.38528 6.06105 5.35737 6.06969 5.33203 6.08363C5.30963 6.09444 5.28969 6.10973 5.27344 6.12855C5.25727 6.14803 5.2453 6.17064 5.23828 6.19496C5.23307 6.2214 5.23307 6.2486 5.23828 6.27504L5.3418 7.31215C5.34489 7.34125 5.35282 7.36963 5.36523 7.39613C5.37959 7.42065 5.39734 7.44301 5.41797 7.46254C5.43816 7.47761 5.46056 7.48947 5.48438 7.4977C5.50885 7.5028 5.53412 7.5028 5.55859 7.4977L6.31836 7.42543C6.38453 7.42452 6.4491 7.44575 6.50182 7.48573C6.55455 7.52572 6.5924 7.58217 6.60938 7.64613C6.63021 7.70994 6.65755 7.7822 6.69141 7.86293C6.72517 7.93532 6.76299 8.00574 6.80469 8.07387L6.81641 8.09926C6.84766 8.16176 6.88477 8.22816 6.92578 8.29457V8.3102C6.96484 8.37856 7.00586 8.44496 7.04688 8.50551C7.08019 8.55793 7.09623 8.61949 7.09273 8.6815C7.08922 8.74352 7.06636 8.80287 7.02734 8.85121L6.48633 9.51137C6.47244 9.5316 6.46066 9.55319 6.45117 9.57582C6.44621 9.59504 6.44621 9.6152 6.45117 9.63441C6.454 9.66357 6.46194 9.69199 6.47461 9.7184C6.4878 9.74202 6.50576 9.76263 6.52734 9.77894C6.79883 10.0016 7.07227 10.2262 7.33984 10.4508C7.35785 10.465 7.3784 10.4756 7.40039 10.4821C7.42554 10.4871 7.45142 10.4871 7.47656 10.4821C7.50624 10.4787 7.53522 10.4708 7.5625 10.4586H7.57227C7.59207 10.4481 7.60991 10.4342 7.625 10.4176L8.11328 9.83168C8.15678 9.77854 8.21745 9.74225 8.28484 9.72906C8.35222 9.71587 8.4221 9.7266 8.48242 9.75941C8.54954 9.79584 8.61866 9.82845 8.68945 9.85707C8.76562 9.88832 8.8418 9.91762 8.91797 9.94301C8.99414 9.9684 9.06836 9.99184 9.15625 10.0172C9.24414 10.0426 9.31836 10.0621 9.39453 10.0797C9.45801 10.094 9.51493 10.129 9.55631 10.1792C9.59768 10.2295 9.62116 10.292 9.62305 10.3571L9.70312 11.1618C9.70593 11.1912 9.71457 11.2197 9.72852 11.2457C9.73963 11.268 9.75487 11.2878 9.77344 11.3043C9.79221 11.3205 9.81417 11.3324 9.83789 11.3395C9.865 11.3446 9.89281 11.3446 9.91992 11.3395L10.9551 11.2379C10.9849 11.2351 11.0139 11.2272 11.041 11.2145C11.0632 11.1994 11.0835 11.1817 11.1016 11.1618C11.1196 11.1397 11.1335 11.1146 11.1426 11.0875C11.1476 11.0637 11.1476 11.0391 11.1426 11.0153L11.0703 10.2536C11.0639 10.188 11.0797 10.1221 11.1151 10.0666C11.1505 10.011 11.2035 9.96886 11.2656 9.94691C11.3438 9.91957 11.4199 9.89223 11.4922 9.86098H11.5137C11.5762 9.83363 11.6406 9.80238 11.709 9.76723H11.7207C11.7949 9.73012 11.8672 9.69301 11.9336 9.65395C12 9.61488 12.0723 9.56996 12.1484 9.52309C12.2009 9.48977 12.2624 9.47373 12.3244 9.47723C12.3864 9.48074 12.4458 9.5036 12.4941 9.54262L13.1543 10.0836C13.174 10.0983 13.1957 10.1101 13.2188 10.1188C13.24 10.1236 13.262 10.1236 13.2832 10.1188C13.3118 10.1177 13.3398 10.1104 13.3652 10.0973C13.3882 10.0832 13.4086 10.0654 13.4258 10.0446C13.6445 9.77504 13.8691 9.49184 14.0977 9.23012C14.1105 9.2116 14.1204 9.19117 14.127 9.16957C14.133 9.14454 14.133 9.11843 14.127 9.0934C14.1236 9.06373 14.1157 9.03475 14.1035 9.00746C14.0907 8.98196 14.0727 8.95935 14.0508 8.94106L13.4648 8.46645C13.4111 8.42345 13.3742 8.36288 13.3606 8.29538C13.347 8.22787 13.3576 8.15775 13.3906 8.09731C13.4258 8.0309 13.459 7.96059 13.4883 7.89027C13.5176 7.81996 13.5488 7.73402 13.5742 7.66176C13.5996 7.58949 13.623 7.50746 13.6484 7.42152C13.6738 7.33559 13.6914 7.26332 13.709 7.18324C13.7241 7.11913 13.7602 7.06188 13.8115 7.02051C13.8627 6.97913 13.9263 6.95599 13.9922 6.95473L14.8125 6.86488C14.8416 6.86179 14.87 6.85386 14.8965 6.84144C14.9185 6.82928 14.9384 6.81343 14.9551 6.79457C14.9697 6.77483 14.9816 6.75314 14.9902 6.73012C14.9943 6.70489 14.9943 6.67918 14.9902 6.65395L14.8887 5.61879C14.8853 5.58974 14.8774 5.5614 14.8652 5.5348V5.52309C14.8513 5.50292 14.8349 5.48455 14.8164 5.4684C14.7968 5.452 14.7743 5.43941 14.75 5.43129C14.7288 5.4263 14.7067 5.4263 14.6855 5.43129L13.9238 5.50355C13.8586 5.50914 13.7934 5.49302 13.7383 5.4577C13.6832 5.42237 13.6413 5.36983 13.6191 5.30824C13.5938 5.23793 13.5645 5.16371 13.5312 5.08168C13.498 4.99965 13.4453 4.91176 13.416 4.84926V4.83559C13.3828 4.7687 13.3463 4.70351 13.3066 4.64027C13.2676 4.57582 13.2246 4.50746 13.1777 4.44496C13.1408 4.3904 13.123 4.32508 13.1272 4.25931C13.1315 4.19353 13.1575 4.13104 13.2012 4.08168L13.7266 3.43324C13.7449 3.4103 13.7594 3.38459 13.7695 3.35707C13.7736 3.33775 13.7736 3.3178 13.7695 3.29848C13.7662 3.26919 13.7576 3.24074 13.7441 3.21449V3.20277C13.7326 3.18421 13.7181 3.16771 13.7012 3.15395L12.9766 2.56801C12.9412 2.55632 12.9081 2.53847 12.8789 2.51527L12.8711 2.49379ZM9.83594 3.58168C10.0257 3.56508 10.2165 3.56508 10.4062 3.58168C10.5982 3.60132 10.7879 3.63926 10.9727 3.69496C11.1527 3.75109 11.3268 3.82503 11.4922 3.91566C11.6556 4.00343 11.8105 4.10607 11.9551 4.2223C12.0976 4.33958 12.2284 4.4704 12.3457 4.61293C12.4668 4.76059 12.5734 4.91952 12.6641 5.08754C12.8491 5.42851 12.9609 5.80438 12.9922 6.19105C13.0088 6.3821 13.0088 6.57423 12.9922 6.76527C12.9739 6.95745 12.9359 7.14724 12.8789 7.33168V7.3434C12.8233 7.52087 12.7513 7.69282 12.6641 7.85707V7.86879C12.5773 8.02775 12.4766 8.17873 12.3633 8.31996C12.2464 8.46289 12.1156 8.59375 11.9727 8.71059C11.8231 8.83132 11.6622 8.93728 11.4922 9.02699C11.3236 9.12004 11.1455 9.19469 10.9609 9.24965H10.9512C10.7676 9.30335 10.5792 9.33868 10.3887 9.35512C10.1976 9.3717 10.0055 9.3717 9.81445 9.35512C9.62029 9.33614 9.42856 9.29753 9.24219 9.23988C9.06317 9.18421 8.88986 9.11162 8.72461 9.02309C8.56066 8.93625 8.40562 8.83354 8.26172 8.71645C8.11971 8.5986 7.98894 8.46783 7.87109 8.32582C7.75275 8.17908 7.64753 8.02223 7.55664 7.85707C7.46359 7.68848 7.38894 7.51037 7.33398 7.32582V7.3141C7.27938 7.13144 7.24403 6.94357 7.22852 6.75355C7.21094 6.56451 7.21094 6.37424 7.22852 6.1852C7.24638 5.99055 7.28367 5.79819 7.33984 5.61098C7.39667 5.43208 7.4699 5.25882 7.55859 5.0934C7.64636 4.93 7.749 4.77505 7.86523 4.63051C8.10649 4.34239 8.40006 4.1025 8.73047 3.92348C8.89868 3.83156 9.07609 3.75759 9.25977 3.70277C9.4463 3.64731 9.63808 3.61131 9.83203 3.59535L9.83594 3.58168ZM10.3672 4.00746C10.2021 3.99377 10.0362 3.99377 9.87109 4.00746C9.7063 4.0204 9.54331 4.05051 9.38477 4.0973C9.22981 4.1464 9.08053 4.21187 8.93945 4.29262C8.79576 4.37007 8.65973 4.46097 8.5332 4.5641C8.41033 4.66318 8.29778 4.77443 8.19727 4.89613C7.99649 5.1446 7.84471 5.42893 7.75 5.73402C7.70034 5.89222 7.6676 6.05524 7.65234 6.22035C7.63867 6.38478 7.63867 6.55006 7.65234 6.71449C7.66541 6.87592 7.69486 7.03559 7.74023 7.19105V7.20082C7.78969 7.35626 7.85514 7.50616 7.93555 7.64809C8.01417 7.79046 8.105 7.92573 8.20703 8.05238C8.30663 8.17539 8.41782 8.28854 8.53906 8.39027C8.66149 8.48803 8.79219 8.57495 8.92969 8.65004C9.07167 8.72637 9.22083 8.78852 9.375 8.83559C9.53257 8.88511 9.69493 8.91785 9.85938 8.93324C10.0258 8.94691 10.193 8.94691 10.3594 8.93324C10.5214 8.92017 10.6818 8.89073 10.8379 8.84535C10.9933 8.7959 11.1432 8.73044 11.2852 8.65004C11.4267 8.57248 11.5613 8.48296 11.6875 8.38246C11.8099 8.28284 11.9224 8.17165 12.0234 8.05043C12.12 7.92834 12.205 7.79758 12.2773 7.6598V7.65004C12.3553 7.51096 12.4206 7.3652 12.4727 7.21449C12.5208 7.05734 12.5529 6.8957 12.5684 6.73207C12.584 6.56577 12.584 6.39837 12.5684 6.23207C12.5434 5.90643 12.4503 5.58967 12.2949 5.30238C12.1396 5.01706 11.9338 4.76228 11.6875 4.55043C11.5652 4.45252 11.4345 4.3656 11.2969 4.29066C11.1552 4.21251 11.0068 4.14714 10.8535 4.09535C10.6969 4.04756 10.536 4.0155 10.373 3.99965L10.3672 4.00746ZM12.9688 1.88441C13.0338 1.90648 13.096 1.93597 13.1543 1.9723C13.1967 1.98262 13.2362 2.00268 13.2695 2.0309L14.0664 2.6852C14.1391 2.74407 14.2006 2.81551 14.248 2.89613L14.2637 2.92152C14.3129 3.01319 14.3447 3.11319 14.3574 3.21645C14.3692 3.32307 14.3579 3.431 14.3242 3.53285C14.292 3.62741 14.2431 3.71541 14.1797 3.79262L13.7891 4.2848L13.8164 4.32973C13.8676 4.4149 13.9139 4.50293 13.9551 4.5934C14.002 4.68715 14.041 4.76918 14.0723 4.84535L14.0898 4.88832L14.6172 4.83754C14.7189 4.82561 14.822 4.83492 14.9199 4.86488H14.9375C15.0279 4.89606 15.1125 4.94228 15.1875 5.0016L15.2129 5.02309C15.282 5.08436 15.3402 5.15702 15.3848 5.23793L15.4004 5.26332C15.4435 5.35173 15.4713 5.44684 15.4824 5.54457C15.4824 5.80824 15.5508 6.3102 15.5859 6.58754C15.5976 6.68632 15.5903 6.78642 15.5645 6.88246V6.89809C15.5344 6.99811 15.4846 7.09108 15.418 7.17152V7.18129C15.3534 7.25722 15.2744 7.31961 15.1855 7.36488C15.094 7.41365 14.9938 7.44416 14.8906 7.45473L14.2676 7.51137L14.252 7.56996C14.2285 7.65004 14.2012 7.73793 14.168 7.83363C14.1348 7.92934 14.1035 8.02895 14.0684 8.10316L14.0527 8.14027L14.4844 8.48598C14.6272 8.62682 14.7158 8.81358 14.7344 9.01332C14.7487 9.11647 14.7423 9.22144 14.7154 9.32207C14.6886 9.42269 14.6419 9.51694 14.5781 9.59926L13.8984 10.4215C13.8328 10.501 13.7526 10.5673 13.6621 10.6168C13.5701 10.6666 13.4692 10.6978 13.3652 10.7086C13.2607 10.7202 13.1548 10.7096 13.0547 10.6774H13.0371C12.949 10.6468 12.8665 10.6019 12.793 10.5446L12.2852 10.1305L12.2324 10.1618C12.1465 10.2106 12.0625 10.2575 11.9824 10.2965C11.9023 10.3356 11.832 10.3707 11.752 10.4059L11.6816 10.4371L11.7383 10.9664C11.7503 11.0744 11.739 11.1836 11.7051 11.2868C11.6725 11.3837 11.6222 11.4738 11.5566 11.5524V11.5641C11.4935 11.6347 11.4189 11.6941 11.3359 11.7399L11.3164 11.7516C11.2287 11.7951 11.1343 11.8235 11.0371 11.8356C10.7715 11.8356 10.2695 11.902 9.99219 11.9371C9.88802 11.9496 9.7824 11.941 9.68164 11.9118C9.58162 11.8817 9.48864 11.8319 9.4082 11.7653C9.32923 11.7014 9.26298 11.6232 9.21289 11.5348C9.16438 11.4424 9.13389 11.3417 9.12305 11.2379L9.06836 10.6168L9 10.5758C8.92188 10.5524 8.83398 10.525 8.73633 10.4918C8.63867 10.4586 8.55273 10.4274 8.46875 10.3922L8.42773 10.3805L8.07422 10.8102C8.00978 10.8832 7.93228 10.9434 7.8457 10.9879L7.82422 10.9996C7.73962 11.0398 7.64939 11.0668 7.55664 11.0797H7.54688C7.44207 11.0929 7.33569 11.0842 7.23438 11.0543C7.13958 11.0284 7.05115 10.9832 6.97461 10.9215L6.15039 10.2438C6.0708 10.179 6.00448 10.0994 5.95508 10.0094C5.90527 9.918 5.87344 9.81789 5.86133 9.71449C5.84877 9.6098 5.86012 9.50362 5.89453 9.40395C5.92264 9.31375 5.96626 9.22915 6.02344 9.15395L6.4375 8.64613L6.41406 8.5934C6.37109 8.52113 6.33008 8.44301 6.28906 8.36098C6.24023 8.27113 6.19922 8.18324 6.16211 8.09731L6.14258 8.04848L5.61719 8.09926C5.50992 8.11148 5.40127 8.10015 5.29883 8.06606C5.20713 8.03641 5.12171 7.99006 5.04688 7.92934L5.02148 7.90785C4.94101 7.84161 4.8746 7.75992 4.82617 7.66762C4.78154 7.57966 4.75309 7.4844 4.74219 7.38637C4.74219 7.12465 4.67578 6.62074 4.64062 6.34535C4.62727 6.24055 4.63592 6.13412 4.66602 6.03285C4.69476 5.93229 4.74471 5.83906 4.8125 5.75941C4.87733 5.67879 4.95686 5.61119 5.04688 5.5602C5.13856 5.51206 5.23872 5.48221 5.3418 5.4723L5.96484 5.41566L5.98242 5.35707C6.00391 5.27699 6.0332 5.1891 6.06445 5.09145C6.0957 4.99379 6.13086 4.89613 6.16406 4.82387L6.18164 4.78285L5.77148 4.44105C5.69407 4.38169 5.62792 4.30892 5.57617 4.22621L5.56445 4.20473C5.5169 4.11754 5.48641 4.02208 5.47461 3.92348V3.9098C5.46152 3.8041 5.47151 3.69682 5.50391 3.59535C5.53647 3.49559 5.58749 3.40284 5.6543 3.32191L6.31055 2.52309C6.37061 2.45082 6.44262 2.38938 6.52344 2.34145L6.54883 2.32582C6.63967 2.27666 6.73914 2.24549 6.8418 2.23402C6.94906 2.22025 7.05805 2.23162 7.16016 2.26723C7.2541 2.29948 7.34144 2.34844 7.41797 2.41176L7.91406 2.80238L7.97656 2.77699C8.05469 2.73012 8.13672 2.6852 8.2168 2.64613C8.29688 2.60707 8.39062 2.5602 8.4707 2.52504L8.51953 2.50551L8.4707 1.98207C8.45873 1.87971 8.46804 1.77598 8.49805 1.67738V1.66176C8.52876 1.57112 8.57502 1.48652 8.63477 1.41176L8.6543 1.38637C8.72428 1.30915 8.8085 1.24615 8.90234 1.20082C8.98967 1.15395 9.08512 1.12412 9.18359 1.11293C9.44727 1.11293 9.94922 1.04652 10.2246 1.00551C10.3294 0.993089 10.4357 1.00172 10.5371 1.0309C10.6366 1.0613 10.7294 1.11035 10.8105 1.17543H10.8203C10.8946 1.2408 10.9568 1.31883 11.0039 1.4059C11.0574 1.50161 11.0907 1.60732 11.1016 1.71645L11.1582 2.33949L11.2168 2.35707C11.2969 2.37855 11.3848 2.40785 11.4824 2.4391C11.5801 2.47035 11.666 2.50355 11.75 2.53871L11.791 2.55629L12.1328 2.14613C12.265 1.98331 12.4557 1.87882 12.6641 1.85512C12.7698 1.84215 12.877 1.85214 12.9785 1.88441H12.9688ZM19.0117 8.63441C19.34 8.60122 19.668 8.69955 19.9238 8.90785C20.0477 9.01088 20.1505 9.13689 20.2266 9.27895C20.3066 9.42396 20.3546 9.58449 20.3672 9.74965C20.3825 9.91271 20.3656 10.0772 20.3174 10.2337C20.2691 10.3902 20.1905 10.5357 20.0859 10.6618C19.985 10.7851 19.8617 10.8885 19.7227 10.9664C19.5775 11.0461 19.417 11.094 19.252 11.1071C19.0863 11.1222 18.9192 11.1056 18.7598 11.0582C18.6067 11.0095 18.4638 10.9334 18.3379 10.8336C18.2156 10.7295 18.1136 10.6037 18.0371 10.4625C17.9572 10.3167 17.9093 10.1556 17.8965 9.98988C17.8779 9.82472 17.8918 9.6575 17.9375 9.4977C17.9855 9.34432 18.0616 9.20124 18.1621 9.07582C18.2658 8.95308 18.3917 8.85103 18.5332 8.77504C18.6782 8.69499 18.8387 8.64703 19.0039 8.63441H19.0117Z" fill="#484851"/>
</g>
<defs>
<clipPath id="clip0_5594_75080">
<rect width="24" height="24" fill="white" transform="translate(0.75)"/>
</clipPath>
</defs>
</svg>
