<svg width="13" height="13" viewBox="0 0 13 13" fill="none" xmlns="http://www.w3.org/2000/svg">
<rect x="0.5" y="0.621094" width="12" height="12" rx="6" fill="#63BCAE"/>
<path d="M6.23884 10.171C6.32285 10.2147 6.36486 10.2366 6.42313 10.248C6.46852 10.2568 6.53397 10.2568 6.57936 10.248C6.63763 10.2366 6.67963 10.2147 6.76364 10.171C7.54035 9.76628 9.77397 8.44384 9.77397 6.61884V5.0715C9.77397 4.74443 9.77397 4.58089 9.72048 4.44031C9.67322 4.31613 9.59643 4.20532 9.49675 4.11747C9.3839 4.01802 9.23078 3.9606 8.92453 3.84576L6.73107 3.02321C6.64602 2.99132 6.6035 2.97537 6.55975 2.96905C6.52095 2.96344 6.48154 2.96344 6.44274 2.96905C6.39899 2.97537 6.35646 2.99132 6.27142 3.02321L4.07795 3.84576C3.77171 3.9606 3.61858 4.01802 3.50574 4.11747C3.40605 4.20532 3.32926 4.31613 3.28201 4.44031C3.22852 4.58089 3.22852 4.74443 3.22852 5.0715V6.61884C3.22852 8.44384 5.46213 9.76628 6.23884 10.171Z" stroke="white" stroke-width="0.5" stroke-linecap="round" stroke-linejoin="round"/>
<g clip-path="url(#clip0_5720_50992)">
<path d="M4.9375 6.62283L5.8326 7.51172L7.84659 5.51172" stroke="white" stroke-width="0.5" stroke-linecap="round" stroke-linejoin="round"/>
</g>
<defs>
<clipPath id="clip0_5720_50992">
<rect width="4.36364" height="4.36364" fill="white" transform="translate(4.21094 4.32812)"/>
</clipPath>
</defs>
</svg>
