<svg width="133" height="106" viewBox="0 0 133 106" fill="none" xmlns="http://www.w3.org/2000/svg">
<path d="M112.666 17.9056H93.6426V12.3158C93.6426 11.4963 94.3068 10.832 95.1262 10.832H105.968C107.182 10.832 108.317 11.4364 108.994 12.4442L112.666 17.9056Z" fill="#87C289"/>
<path d="M122.8 37.2924H96.7032C95.4629 37.2924 94.7701 35.8608 95.5397 34.8881L103.149 25.2695H132.286C132.882 25.2695 133.214 25.957 132.845 26.424L125.144 36.1582C124.577 36.8746 123.714 37.2924 122.8 37.2924Z" fill="#DDDDBF"/>
<path d="M93.6426 15.9375H122.768C123.587 15.9375 124.251 16.6024 124.251 17.4212V35.8111C124.251 36.63 123.587 37.2949 122.768 37.2949H95.1262C94.3074 37.2949 93.6426 36.63 93.6426 35.8111V15.9375Z" fill="#FFDC99"/>
<path d="M12.5889 65.4805V83.706H0.5V69.5105C0.5 67.7564 1.62036 66.2641 3.1848 65.7105C3.60554 65.5615 4.05805 65.4805 4.52965 65.4805H12.589L12.5889 65.4805Z" fill="#133774"/>
<path d="M26.6716 65.4805V93.9992H12.6078C10.3826 93.9992 8.57848 92.1949 8.57848 89.9692V69.5105C8.57848 67.2848 6.77434 65.4805 4.54883 65.4805H26.6715H26.6716Z" fill="#4C589E"/>
<path d="M16.5802 43.3945V89.9771C16.5802 92.2027 14.7762 94.0069 12.5508 94.007H49.5929C51.8184 94.007 53.6225 92.2028 53.6225 89.9771V43.3945H16.5802Z" fill="#F9F9F9"/>
<path d="M34.959 45.4609H19.7391C19.1497 45.4609 18.6719 45.9388 18.6719 46.5282V61.7495C18.6719 62.339 19.1497 62.8168 19.7391 62.8168H34.959C35.5484 62.8168 36.0262 62.339 36.0262 61.7495V46.5282C36.0262 45.9388 35.5484 45.4609 34.959 45.4609Z" fill="#87C289"/>
<path d="M27.3689 56.2061C26.6585 56.2061 26.0567 55.6825 25.9584 54.9789L25.323 50.43C25.1494 49.1874 26.1143 48.0781 27.3689 48.0781C28.6235 48.0781 29.5884 49.1873 29.4148 50.43L28.7793 54.9789C28.6811 55.6825 28.0793 56.2061 27.3689 56.2061Z" fill="url(#paint0_linear_5586_75014)"/>
<path d="M29.1225 58.453C29.1225 57.5038 28.3531 56.7344 27.404 56.7344C26.4549 56.7344 25.6855 57.5038 25.6855 58.453C25.6855 59.4022 26.4549 60.1716 27.404 60.1716C28.3531 60.1716 29.1225 59.4022 29.1225 58.453Z" fill="url(#paint1_linear_5586_75014)"/>
<path d="M30.9967 65.1406H19.4327C19.0125 65.1406 18.6719 65.4813 18.6719 65.9015C18.6719 66.3217 19.0125 66.6624 19.4327 66.6624H30.9967C31.4169 66.6624 31.7576 66.3217 31.7576 65.9015C31.7576 65.4813 31.4169 65.1406 30.9967 65.1406Z" fill="url(#paint2_linear_5586_75014)"/>
<path d="M29.0348 67.7578H19.4327C19.0125 67.7578 18.6719 68.0985 18.6719 68.5187C18.6719 68.9389 19.0125 69.2796 19.4327 69.2796H29.0348C29.455 69.2796 29.7956 68.9389 29.7956 68.5187C29.7956 68.0985 29.455 67.7578 29.0348 67.7578Z" fill="url(#paint3_linear_5586_75014)"/>
<path d="M33.8631 67.7578H31.2452C30.825 67.7578 30.4844 68.0985 30.4844 68.5187C30.4844 68.9389 30.825 69.2796 31.2452 69.2796H33.8631C34.2833 69.2796 34.6239 68.9389 34.6239 68.5187C34.6239 68.0985 34.2833 67.7578 33.8631 67.7578Z" fill="url(#paint4_linear_5586_75014)"/>
<path d="M24.8343 70.375H19.4327C19.0125 70.375 18.6719 70.7157 18.6719 71.1359C18.6719 71.5561 19.0125 71.8968 19.4327 71.8968H24.8343C25.2545 71.8968 25.5951 71.5561 25.5951 71.1359C25.5951 70.7157 25.2545 70.375 24.8343 70.375Z" fill="url(#paint5_linear_5586_75014)"/>
<path d="M28.6871 72.9883H19.4327C19.0125 72.9883 18.6719 73.3289 18.6719 73.7492C18.6719 74.1694 19.0125 74.51 19.4327 74.51H28.6871C29.1073 74.51 29.4479 74.1694 29.4479 73.7492C29.4479 73.3289 29.1073 72.9883 28.6871 72.9883Z" fill="url(#paint6_linear_5586_75014)"/>
<path d="M33.4626 75.5938H19.4327C19.0125 75.5938 18.6719 75.9344 18.6719 76.3546C18.6719 76.7748 19.0125 77.1155 19.4327 77.1155H33.4626C33.8828 77.1155 34.2235 76.7748 34.2235 76.3546C34.2235 75.9344 33.8828 75.5938 33.4626 75.5938Z" fill="url(#paint7_linear_5586_75014)"/>
<path d="M40.3481 75.5938H35.5753C35.1551 75.5938 34.8145 75.9344 34.8145 76.3546C34.8145 76.7748 35.1551 77.1155 35.5753 77.1155H40.3481C40.7683 77.1155 41.109 76.7748 41.109 76.3546C41.109 75.9344 40.7683 75.5938 40.3481 75.5938Z" fill="url(#paint8_linear_5586_75014)"/>
<path d="M90.0287 21.4023C90.9957 28.0016 96.4673 31.384 103.825 33.4195V65.2342C103.825 78.1 95.5126 89.4916 83.2611 93.4159L72.5609 96.8433L61.8607 93.4159C49.6092 89.4916 41.2969 78.1 41.2969 65.2342V33.4195C48.6545 31.384 54.1261 28.0016 55.0931 21.4023H90.0287Z" fill="url(#paint9_linear_5586_75014)"/>
<path d="M72.5609 96.8433L61.8607 93.4159C49.6092 89.4916 41.2969 78.1 41.2969 65.2342V33.4195C48.6545 31.384 54.1261 28.0016 55.0931 21.4023H72.5609V96.8433Z" fill="url(#paint10_linear_5586_75014)"/>
<path d="M63.7519 87.5508C61.3662 86.7865 59.1338 85.6549 57.1171 84.1873C55.1458 82.7528 53.4158 81.0244 51.9753 79.0502C50.5347 77.0761 49.4164 74.9012 48.6517 72.5859C47.8693 70.2174 47.4727 67.7461 47.4727 65.2407V37.9007C53.3534 35.5908 57.4287 32.1239 59.6117 27.5742H85.5318C87.715 32.1239 91.7902 35.5908 97.6709 37.9007V65.2407C97.6709 67.7461 97.2743 70.2175 96.4919 72.586C95.7271 74.9012 94.6089 77.0761 93.1684 79.0502C91.7278 81.0244 89.9978 82.7528 88.0265 84.1873C86.0098 85.6549 83.7774 86.7865 81.3917 87.5508L72.5718 90.3758L63.7519 87.5508Z" fill="#87C289"/>
<path d="M80.8649 64.3518H64.207V48.8023C64.207 44.2093 67.9433 40.4727 72.5359 40.4727C77.1285 40.4727 80.8649 44.2093 80.8649 48.8023V64.3518ZM66.9359 61.6227H78.136V48.8024C78.136 45.7143 75.6238 43.2019 72.5359 43.2019C69.4481 43.2019 66.9359 45.7142 66.9359 48.8024V61.6227Z" fill="url(#paint11_linear_5586_75014)"/>
<path d="M63.5416 56.1797H81.4452C82.4178 56.1797 83.2075 56.9694 83.2075 57.9422V58.7297H61.7793V57.9422C61.7793 56.9694 62.569 56.1797 63.5416 56.1797Z" fill="url(#paint12_linear_5586_75014)"/>
<path d="M83.7726 58.0117H61.2747C60.0583 58.0117 59.0723 58.9979 59.0723 60.2143V75.6091C59.0723 76.8256 60.0583 77.8117 61.2747 77.8117H83.7726C84.989 77.8117 85.975 76.8256 85.975 75.6091V60.2143C85.975 58.9979 84.989 58.0117 83.7726 58.0117Z" fill="#FFDC99"/>
<path d="M75.8509 64.8516C75.8509 62.9876 74.34 61.4766 72.4762 61.4766C70.6124 61.4766 69.1016 62.9876 69.1016 64.8516C69.1016 66.232 69.9306 67.418 71.1175 67.9409V70.5239C71.1175 71.2745 71.7258 71.8828 72.4762 71.8828C73.2266 71.8828 73.8349 71.2744 73.8349 70.5239V67.9409C75.0219 67.418 75.8509 66.232 75.8509 64.8516Z" fill="url(#paint13_linear_5586_75014)"/>
<path d="M72.4967 66.2515C73.2629 66.2515 73.8841 65.6303 73.8841 64.864C73.8841 64.0978 73.2629 63.4766 72.4967 63.4766C71.7305 63.4766 71.1094 64.0978 71.1094 64.864C71.1094 65.6303 71.7305 66.2515 72.4967 66.2515Z" fill="url(#paint14_linear_5586_75014)"/>
<defs>
<linearGradient id="paint0_linear_5586_75014" x1="27.3689" y1="54.1741" x2="27.3689" y2="48.0781" gradientUnits="userSpaceOnUse">
<stop stop-color="#0D274D"/>
<stop offset="1" stop-color="#0A2751"/>
</linearGradient>
<linearGradient id="paint1_linear_5586_75014" x1="27.404" y1="59.3123" x2="27.404" y2="56.7344" gradientUnits="userSpaceOnUse">
<stop stop-color="#0D274D"/>
<stop offset="1" stop-color="#0A2751"/>
</linearGradient>
<linearGradient id="paint2_linear_5586_75014" x1="25.2147" y1="66.2819" x2="25.2147" y2="65.1406" gradientUnits="userSpaceOnUse">
<stop stop-color="#0D274D"/>
<stop offset="1" stop-color="#0A2751"/>
</linearGradient>
<linearGradient id="paint3_linear_5586_75014" x1="24.2337" y1="68.8991" x2="24.2337" y2="67.7578" gradientUnits="userSpaceOnUse">
<stop stop-color="#0D274D"/>
<stop offset="1" stop-color="#0A2751"/>
</linearGradient>
<linearGradient id="paint4_linear_5586_75014" x1="32.5542" y1="68.8991" x2="32.5542" y2="67.7578" gradientUnits="userSpaceOnUse">
<stop stop-color="#0D274D"/>
<stop offset="1" stop-color="#0A2751"/>
</linearGradient>
<linearGradient id="paint5_linear_5586_75014" x1="22.1335" y1="71.5163" x2="22.1335" y2="70.375" gradientUnits="userSpaceOnUse">
<stop stop-color="#0D274D"/>
<stop offset="1" stop-color="#0A2751"/>
</linearGradient>
<linearGradient id="paint6_linear_5586_75014" x1="24.0599" y1="74.1296" x2="24.0599" y2="72.9883" gradientUnits="userSpaceOnUse">
<stop stop-color="#0D274D"/>
<stop offset="1" stop-color="#0A2751"/>
</linearGradient>
<linearGradient id="paint7_linear_5586_75014" x1="26.4477" y1="76.7351" x2="26.4477" y2="75.5938" gradientUnits="userSpaceOnUse">
<stop stop-color="#0D274D"/>
<stop offset="1" stop-color="#0A2751"/>
</linearGradient>
<linearGradient id="paint8_linear_5586_75014" x1="37.9617" y1="76.7351" x2="37.9617" y2="75.5938" gradientUnits="userSpaceOnUse">
<stop stop-color="#0D274D"/>
<stop offset="1" stop-color="#0A2751"/>
</linearGradient>
<linearGradient id="paint9_linear_5586_75014" x1="72.5609" y1="77.983" x2="72.5609" y2="21.4023" gradientUnits="userSpaceOnUse">
<stop stop-color="#0D274D"/>
<stop offset="1" stop-color="#0A2751"/>
</linearGradient>
<linearGradient id="paint10_linear_5586_75014" x1="56.9289" y1="77.983" x2="56.9289" y2="21.4023" gradientUnits="userSpaceOnUse">
<stop stop-color="#0D274D"/>
<stop offset="1" stop-color="#0A2751"/>
</linearGradient>
<linearGradient id="paint11_linear_5586_75014" x1="72.5359" y1="58.382" x2="72.5359" y2="40.4727" gradientUnits="userSpaceOnUse">
<stop stop-color="#0D274D"/>
<stop offset="1" stop-color="#0A2751"/>
</linearGradient>
<linearGradient id="paint12_linear_5586_75014" x1="72.4934" y1="58.0922" x2="72.4934" y2="56.1797" gradientUnits="userSpaceOnUse">
<stop stop-color="#0D274D"/>
<stop offset="1" stop-color="#0A2751"/>
</linearGradient>
<linearGradient id="paint13_linear_5586_75014" x1="72.4763" y1="69.2812" x2="72.4763" y2="61.4766" gradientUnits="userSpaceOnUse">
<stop stop-color="#0D274D"/>
<stop offset="1" stop-color="#0A2751"/>
</linearGradient>
<linearGradient id="paint14_linear_5586_75014" x1="72.4967" y1="65.5578" x2="72.4967" y2="63.4766" gradientUnits="userSpaceOnUse">
<stop stop-color="#0D274D"/>
<stop offset="1" stop-color="#0A2751"/>
</linearGradient>
</defs>
</svg>
