<svg width="13" height="13" viewBox="0 0 13 13" fill="none" xmlns="http://www.w3.org/2000/svg">
<rect x="0.5" y="0.621094" width="12" height="12" rx="6" fill="#E96052"/>
<path d="M5.47852 5.59612L7.52397 7.64157M7.52397 5.59612L5.47852 7.64157M9.77397 6.61884C9.77397 8.44384 7.54035 9.76628 6.76364 10.171C6.67963 10.2147 6.63763 10.2366 6.57936 10.248C6.53397 10.2568 6.46852 10.2568 6.42313 10.248C6.36486 10.2366 6.32285 10.2147 6.23884 10.171C5.46213 9.76628 3.22852 8.44384 3.22852 6.61884V5.0715C3.22852 4.74443 3.22852 4.58089 3.28201 4.44031C3.32926 4.31613 3.40605 4.20532 3.50574 4.11747C3.61858 4.01802 3.77171 3.9606 4.07795 3.84576L6.27142 3.02321C6.35646 2.99132 6.39899 2.97537 6.44274 2.96905C6.48154 2.96344 6.52095 2.96344 6.55975 2.96905C6.6035 2.97537 6.64602 2.99132 6.73107 3.02321L8.92453 3.84576C9.23078 3.9606 9.3839 4.01802 9.49675 4.11747C9.59643 4.20532 9.67322 4.31613 9.72048 4.44031C9.77397 4.58089 9.77397 4.74443 9.77397 5.0715V6.61884Z" stroke="white" stroke-width="0.5" stroke-linecap="round" stroke-linejoin="round"/>
</svg>
