<svg width="121" height="121" viewBox="0 0 121 121" fill="none" xmlns="http://www.w3.org/2000/svg">
<g clip-path="url(#clip0_4890_64954)">
<path d="M11.6062 20.3506H67.4904V61.3456H11.6062V20.3506ZM80.7877 16.373H121.041V45.9013H80.7877V16.373Z" fill="#EAEAEA"/>
<path d="M87.7759 29.5586H116.785V47.2803H87.7759V29.5586Z" fill="white"/>
<path d="M88.6548 30.4189H115.965V46.5017H88.6548V30.4189Z" fill="#EAEAEA"/>
<path d="M90.2156 39.8064H96.2711V40.3972H90.2156V39.8064ZM90.2156 40.8674H94.1009V41.4582H90.2156V40.8674ZM90.2156 41.9285H95.7241V42.5193H90.2156V41.9285ZM90.2156 43.8037H95.7241V44.3944H90.2156V43.8037ZM99.2594 39.8064H105.315V40.3972H99.2594V39.8064ZM99.2594 40.8674H103.145V41.4582H99.2594V40.8674ZM99.2594 41.9285H104.768V42.5193H99.2594V41.9285ZM99.2594 43.8037H104.768V44.3944H99.2594V43.8037ZM108.469 39.8064H114.525V40.3972H108.469V39.8064ZM108.469 40.8674H112.355V41.4582H108.469V40.8674ZM108.469 41.9285H113.978V42.5193H108.469V41.9285ZM108.469 43.8037H113.978V44.3944H108.469V43.8037ZM90.2156 32.5755H96.2711V33.1662H90.2156V32.5755ZM90.2156 33.6365H94.1009V34.2272H90.2156V33.6365ZM90.2156 34.6976H95.7241V35.2883H90.2156V34.6976ZM90.2156 36.5727H95.7241V37.1635H90.2156V36.5727ZM99.2594 32.5755H105.315V33.1662H99.2594V32.5755ZM99.2594 33.6365H103.145V34.2272H99.2594V33.6365ZM99.2594 34.6976H104.768V35.2883H99.2594V34.6976ZM99.2594 36.5727H104.768V37.1635H99.2594V36.5727ZM108.469 32.5755H114.525V33.1662H108.469V32.5755ZM108.469 33.6365H112.355V34.2272H108.469V33.6365ZM108.469 34.6976H113.978V35.2883H108.469V34.6976ZM108.469 36.5727H113.978V37.1635H108.469V36.5727ZM-1.98657 30.2666H33.4801V51.1904H-1.98657V30.2666Z" fill="white"/>
<path d="M11.6062 31.1738H32.2585V49.6124H11.6062V31.1738Z" fill="#CDCDCD"/>
<path d="M1.31543 32.1288H8.3104V32.6773H1.31543V32.1288ZM1.31543 33.0644H6.66217V33.6129H1.31543V33.0644ZM1.31543 34.0001H7.70917V34.5486H1.31543V34.0001ZM1.31543 34.9357H6.48767V35.4842H1.31543V34.9357ZM2.98509 35.8715H8.83095V36.42H2.98509V35.8715ZM2.98509 36.9968H8.3104V37.5453H2.98509V36.9968ZM1.31543 37.9325H6.66217V38.481H1.31543V37.9325ZM1.31543 38.8683H7.70917V39.4168H1.31543V38.8683ZM1.31543 39.8039H6.48767V40.3524H1.31543V39.8039ZM1.31543 40.7396H8.83109V41.2881H1.31543V40.7396ZM3.60892 41.8116H10.0027V42.3601H3.60892V41.8116ZM1.31543 42.8838H8.83109V43.4323H1.31543V42.8838ZM1.31543 44.4505H8.3104V44.999H1.31543V44.4505ZM1.31543 45.386H6.66217V45.9345H1.31543V45.386ZM1.31543 46.3218H7.70917V46.8703H1.31543V46.3218ZM1.31543 47.2574H6.48767V47.8059H1.31543V47.2574ZM2.98509 48.1931H8.83095V48.7416H2.98509V48.1931ZM13.4281 37.0797H20.4231V37.6282H13.4281V37.0797ZM13.4281 38.0154H18.7748V38.5639H13.4281V38.0154ZM13.4281 38.951H19.8219V39.4995H13.4281V38.951ZM13.4281 39.8867H18.6003V40.4352H13.4281V39.8867ZM15.0979 40.8223H20.9438V41.3708H15.0979V40.8223ZM15.0979 41.9478H20.4232V42.4963H15.0979V41.9478ZM13.4281 42.8835H18.7748V43.432H13.4281V42.8835ZM13.4281 43.8191H19.8219V44.3676H13.4281V43.8191ZM13.4281 44.7548H18.6003V45.3033H13.4281V44.7548ZM13.4281 45.6904H20.9438V46.2389H13.4281V45.6904ZM15.7216 46.7626H22.1153V47.3111H15.7216V46.7626ZM13.4281 47.8348H20.9438V48.3833H13.4281V47.8348ZM13.4281 32.1288H20.4231V32.6773H13.4281V32.1288ZM13.4281 33.0644H18.7748V33.6129H13.4281V33.0644ZM13.4281 34.0001H19.8219V34.5486H13.4281V34.0001ZM13.4281 34.9357H18.6003V35.4842H13.4281V34.9357ZM15.0979 35.8715H20.9438V36.42H15.0979V35.8715ZM22.7158 32.1288H29.7108V32.6773H22.7158V32.1288ZM22.7158 33.0644H28.0626V33.6129H22.7158V33.0644ZM22.7158 34.0001H29.1096V34.5486H22.7158V34.0001ZM22.7158 34.9357H27.8881V35.4842H22.7158V34.9357ZM24.3855 35.8715H30.2313V36.42H24.3855V35.8715ZM24.3855 36.9968H29.7108V37.5453H24.3855V36.9968ZM22.7158 37.9325H28.0626V38.481H22.7158V37.9325ZM22.7158 38.8683H29.1096V39.4168H22.7158V38.8683ZM22.7158 39.8039H27.8881V40.3524H22.7158V39.8039ZM22.7158 40.7396H30.2315V41.2881H22.7158V40.7396ZM25.0093 41.8116H31.4031V42.3601H25.0093V41.8116ZM22.7158 42.8838H30.2315V43.4323H22.7158V42.8838ZM22.7158 44.4505H29.7108V44.999H22.7158V44.4505ZM22.7158 45.386H28.0626V45.9345H22.7158V45.386ZM22.7158 46.3218H29.1096V46.8703H22.7158V46.3218ZM22.7158 47.2574H27.8881V47.8059H22.7158V47.2574ZM24.3855 48.1931H30.2313V48.7416H24.3855V48.1931ZM45.3212 12.2119H76.75V31.4118H45.3212V12.2119Z" fill="white"/>
<path d="M46.1609 13.1191H75.7495V30.5433H46.1609V13.1191Z" fill="#EAEAEA"/>
<path d="M48.3398 14.8867H63.2961V23.4718H48.3398V14.8867ZM48.5064 24.465H55.4378V29.0764H48.5064V24.465ZM56.4224 24.465H63.3539V29.0764H56.4224V24.465ZM65.0125 14.8867H74.0039V29.5492H65.0125V14.8867Z" fill="white"/>
<path d="M65.6295 15.8838H71.6769V16.4955H65.6295V15.8838ZM65.6295 16.9272H70.2519V17.5389H65.6295V16.9272ZM65.6295 17.9706H71.1572V18.5823H65.6295V17.9706ZM65.6295 19.014H70.101V19.6257H65.6295V19.014ZM65.6295 20.0574H72.1269V20.6691H65.6295V20.0574ZM65.6295 21.3124H71.6769V21.9241H65.6295V21.3124ZM65.6295 22.3558H70.2519V22.9675H65.6295V22.3558ZM65.6295 23.3992H71.1572V24.0109H65.6295V23.3992ZM65.6295 24.4426H70.101V25.0543H65.6295V24.4426ZM65.6295 25.486H72.1269V26.0977H65.6295V25.486ZM65.6295 26.6815H71.1572V27.2932H65.6295V26.6815ZM65.6295 27.8771H72.1269V28.4888H65.6295V27.8771ZM48.7915 22.6616L48.9282 17.5389C48.9282 17.5389 49.8257 20.6691 50.7895 20.6691C51.7534 20.6691 52.016 17.0591 53.1162 17.233C54.2164 17.407 54.6612 21.6182 55.7355 21.6182C57.0717 21.6182 56.7493 19.1655 57.8461 19.1655C58.943 19.1655 58.8894 20.6691 59.8966 20.6691C61.4923 20.6691 62.6795 16.4955 62.6795 16.4955V22.7978L48.7915 22.6616Z" fill="#EAEAEA"/>
<path d="M92.7647 25.0692H83.7565C83.7089 25.0692 83.6617 25.0598 83.6177 25.0416C83.5737 25.0233 83.5337 24.9966 83.5 24.963C83.4664 24.9293 83.4396 24.8893 83.4214 24.8453C83.4032 24.8014 83.3938 24.7542 83.3938 24.7066V19.6135C83.3938 19.5174 83.432 19.4252 83.5 19.3572C83.5681 19.2892 83.6603 19.251 83.7565 19.251H92.7647C92.8609 19.251 92.9532 19.2892 93.0212 19.3572C93.0892 19.4252 93.1274 19.5174 93.1274 19.6135V24.7066C93.1274 24.8028 93.0892 24.895 93.0212 24.963C92.9532 25.031 92.8609 25.0692 92.7647 25.0692Z" fill="white"/>
<path d="M83.3938 20.377H93.1276V21.3809H83.3938V20.377ZM84.5176 21.921H85.2981C85.3997 21.921 85.4971 21.9613 85.5689 22.0331C85.6407 22.1049 85.6811 22.2023 85.6811 22.3038V22.949C85.6811 23.0506 85.6407 23.1479 85.5689 23.2197C85.4971 23.2915 85.3997 23.3318 85.2981 23.3318H84.5176C84.4161 23.3318 84.3187 23.2915 84.2468 23.2197C84.175 23.1479 84.1347 23.0506 84.1347 22.949V22.3038C84.1347 22.2023 84.175 22.1049 84.2468 22.0331C84.3187 21.9613 84.4161 21.921 84.5176 21.921Z" fill="#EAEAEA"/>
<path d="M25.4897 17.5459H37.5528V24.7554H25.4897V17.5459Z" fill="white"/>
<path d="M33.5167 21.2068H32.5244C32.4552 20.4821 31.8445 19.9151 31.1013 19.9151V18.9258C32.3912 18.9258 33.4455 19.9349 33.5167 21.2068Z" fill="#CDCDCD"/>
<path d="M33.5239 21.3441C33.5239 22.6801 32.4406 23.7628 31.1044 23.7628C29.7678 23.7628 28.6846 22.6799 28.6846 21.3441C28.6846 20.0086 29.7679 18.9258 31.1044 18.9258V19.9151C30.3145 19.9151 29.6742 20.5549 29.6742 21.3441C29.6742 21.5318 29.7112 21.7177 29.7831 21.8912C29.8549 22.0646 29.9603 22.2222 30.0931 22.3549C30.2259 22.4877 30.3836 22.593 30.5571 22.6648C30.7306 22.7366 30.9166 22.7736 31.1044 22.7736C31.8939 22.7736 32.5341 22.1338 32.5341 21.3441C32.5341 21.2977 32.5316 21.2518 32.5274 21.2068H33.5198C33.5223 21.2523 33.5239 21.2977 33.5239 21.3441Z" fill="#EAEAEA"/>
<path d="M78.2447 103.078L38.8291 103.683C34.1234 99.416 30.1755 90.3087 31.523 84.5478C33.06 77.9764 35.2655 72.3205 37.587 68.8903C38.6028 67.3908 39.6397 66.3123 40.6452 65.7651C45.4983 63.1292 70.1699 62.6769 75.2493 65.7651C75.9178 66.1755 76.6022 66.8279 77.2865 67.6803C79.8078 70.8422 82.2976 76.7821 84.0768 83.343C85.8878 90.0247 83.0979 98.6848 78.2447 103.078Z" fill="#282828"/>
<path opacity="0.5" d="M77.3867 67.6803C69.3032 68.322 63.7172 73.8294 58.9949 74.2988C55.0714 75.3143 43.0213 65.3334 37.687 68.8903C38.7028 67.3908 39.7398 66.3123 40.7453 65.7651C45.5984 63.1292 70.27 62.6769 75.3494 65.7651C76.0182 66.1755 76.7024 66.8279 77.3867 67.6803Z" fill="black"/>
<path d="M74.4792 60.9675C74.318 66.2549 67.8547 69.6022 63.5545 72.2169C58.5484 75.261 58.4795 74.7997 50.3712 69.4716C46.5865 66.9848 42.0956 64.676 41.2905 61.2807C39.5304 53.926 49.3202 38.6777 58.3278 38.6777C67.3353 38.6777 74.7781 51.583 74.4792 60.9675Z" fill="black"/>
<path d="M58.4985 72.4186C64.3679 72.4186 69.1259 66.2451 69.1259 58.6297C69.1259 51.0143 64.3679 44.8408 58.4985 44.8408C52.6292 44.8408 47.8711 51.0143 47.8711 58.6297C47.8711 66.2451 52.6292 72.4186 58.4985 72.4186Z" fill="#D4D4D4"/>
<path d="M67.6802 62.5023C69.1294 62.5023 70.3042 61.3281 70.3042 59.8796C70.3042 58.4311 69.1294 57.2568 67.6802 57.2568C66.231 57.2568 65.0562 58.4311 65.0562 59.8796C65.0562 61.3281 66.231 62.5023 67.6802 62.5023Z" fill="#D4D4D4"/>
<path d="M49.2834 62.5023C50.7326 62.5023 51.9075 61.3281 51.9075 59.8796C51.9075 58.4311 50.7326 57.2568 49.2834 57.2568C47.8342 57.2568 46.6594 58.4311 46.6594 59.8796C46.6594 61.3281 47.8342 62.5023 49.2834 62.5023Z" fill="#D4D4D4"/>
<path d="M75.5181 56.8851C74.1022 48.0304 75.07 37.7236 58.8845 37.7236C42.6991 37.7236 43.3669 47.9356 41.0455 55.8485C40.7244 56.9377 40.5191 57.9793 40.4508 58.9474C40.3822 59.9048 40.4455 60.7836 40.656 61.5622C41.6194 65.0871 49.1889 70.2853 54.1366 72.916C55.0261 73.3895 57.4897 74.2628 58.6425 74.2892C59.4478 74.6419 61.6324 73.5316 62.3639 73.137C67.475 70.3853 75.6603 65.4607 75.8024 60.8887V60.7941C75.834 59.5525 75.7393 58.237 75.5181 56.8851ZM58.7951 73.1739C56.9842 70.1592 45.5935 63.6931 46.2093 61.2362C47.7726 54.9964 53.1898 53.533 58.9754 53.8393C65.504 54.185 70.2754 56.701 70.6649 60.005C70.5018 62.946 60.7585 69.833 58.7951 73.1739Z" fill="#282828"/>
<path d="M81.9435 104.718H34.4448L27.933 82.0862C27.6159 80.9842 28.4435 79.8857 29.5907 79.8857H86.7975C87.9447 79.8857 88.7723 80.9842 88.4552 82.0862L81.9435 104.718Z" fill="#A0A0A0"/>
<path d="M60.4974 96.7806C61.4052 96.2102 62.083 95.3114 62.249 94.2301C62.5867 92.0314 60.7044 89.9756 57.9925 89.9756C55.2801 89.9756 53.3978 92.0314 53.7354 94.2301C53.9045 95.3309 54.6038 96.2427 55.537 96.8116H55.5401L55.5947 97.3706H55.5989L55.6515 97.9105C55.6672 98.0714 55.8377 98.2108 56.0508 98.2261C56.2952 98.2439 56.4929 98.1003 56.4815 97.9203L56.4506 97.4284C56.4485 97.3966 56.4806 97.3708 56.5223 97.3708C56.5639 97.3708 56.599 97.3966 56.6007 97.4284L56.6281 97.9105C56.6372 98.0714 56.8021 98.2108 57.0145 98.2261C57.2581 98.2439 57.4616 98.1003 57.4576 97.9203L57.4466 97.4284C57.4459 97.3966 57.479 97.3708 57.5205 97.3708C57.562 97.3708 57.5962 97.3966 57.5966 97.4284L57.6045 97.9105C57.6071 98.0714 57.7662 98.2108 57.978 98.2261C58.2209 98.2439 58.4303 98.1003 58.4335 97.9203L58.4425 97.4284C58.4431 97.3966 58.4773 97.3708 58.5188 97.3708C58.5603 97.3708 58.5934 97.3966 58.5926 97.4284L58.5805 97.9203C58.5764 98.0903 58.7571 98.2276 58.9821 98.2276C59.2072 98.2276 59.3994 98.0903 59.4095 97.9203L59.4384 97.4284C59.4403 97.3966 59.4755 97.3708 59.517 97.3708C59.5585 97.3708 59.5906 97.3966 59.5885 97.4284L59.5565 97.9203C59.5454 98.0903 59.7206 98.2276 59.9457 98.2276C60.1707 98.2276 60.3685 98.0903 60.3854 97.9203L60.4844 96.9267C60.4853 96.9177 60.4853 96.9088 60.4853 96.8999L60.4974 96.7806C60.4972 96.7808 60.4972 96.7808 60.4974 96.7806ZM58.8529 93.1487C59.6785 93.1487 61.1298 94.1037 61.0524 94.7903C60.9788 95.4435 60.3097 95.9509 59.5545 95.9509C58.7994 95.9509 58.1913 95.4436 58.1962 94.7903C58.2014 94.1035 58.0272 93.1487 58.8529 93.1487ZM57.941 95.7282C58.1309 95.7282 58.3848 96.2782 58.2835 96.3587C58.1826 96.4384 57.6342 96.4347 57.5374 96.3587C57.4403 96.2819 57.7516 95.7282 57.941 95.7282ZM54.7621 94.7903C54.6803 94.1037 56.0645 93.1487 56.8902 93.1487C57.7159 93.1487 57.6087 94.1037 57.6182 94.7903C57.6272 95.4435 57.0223 95.9509 56.2671 95.9509C55.5119 95.9509 54.8398 95.4435 54.7621 94.7903Z" fill="white"/>
</g>
<defs>
<clipPath id="clip0_4890_64954">
<rect width="90.0968" height="90.0968" fill="white" transform="translate(14.5312 14.1211)"/>
</clipPath>
</defs>
</svg>
