<svg width="21" height="20" viewBox="0 0 21 20" fill="none" xmlns="http://www.w3.org/2000/svg">
<path d="M20.5 14V2C20.5 1.46957 20.2893 0.960859 19.9142 0.585786C19.5391 0.210714 19.0304 0 18.5 0H6.5C5.96957 0 5.46086 0.210714 5.08579 0.585786C4.71071 0.960859 4.5 1.46957 4.5 2V14C4.5 14.5304 4.71071 15.0391 5.08579 15.4142C5.46086 15.7893 5.96957 16 6.5 16H18.5C19.0304 16 19.5391 15.7893 19.9142 15.4142C20.2893 15.0391 20.5 14.5304 20.5 14ZM9.5 10L11.53 12.71L14.5 9L18.5 14H6.5L9.5 10ZM0.5 4V18C0.5 18.5304 0.710714 19.0391 1.08579 19.4142C1.46086 19.7893 1.96957 20 2.5 20H16.5V18H2.5V4" fill="#12123F" fill-opacity="0.45"/>
</svg>
