<svg width="25" height="24" viewBox="0 0 25 24" fill="none" xmlns="http://www.w3.org/2000/svg">
<g clip-path="url(#clip0_5594_75109)">
<path fill-rule="evenodd" clip-rule="evenodd" d="M13.6641 7.7749V3.34131C17.2828 3.83358 20.1509 6.96246 20.6022 10.9102H16.538C16.1763 9.37677 15.0697 8.16957 13.6641 7.7749ZM11.6641 7.7749V3.34131C8.04534 3.83358 5.1772 6.96246 4.72596 10.9102H8.79008C9.15186 9.37677 10.2585 8.16957 11.6641 7.7749ZM8.79008 13.092H4.72596C5.1772 17.0397 8.04534 20.1685 11.6641 20.6608V16.2272C10.2585 15.8326 9.15186 14.6254 8.79008 13.092ZM13.6641 16.2272V20.6608C17.2828 20.1685 20.1509 17.0397 20.6022 13.092H16.538C16.1763 14.6254 15.0697 15.8326 13.6641 16.2272ZM15.5214 1.54379C14.9238 1.34975 14.3028 1.21502 13.6641 1.14584V-1.08984H11.6641V1.14584C11.0254 1.21502 10.4044 1.34975 9.80676 1.54379L9.09254 -0.404088L7.23559 0.406219L7.95698 2.37366C7.38037 2.70987 6.8375 3.10592 6.33533 3.55422L4.37117 1.41149L2.95696 2.95427L4.92112 5.09699C4.51018 5.64481 4.14713 6.23704 3.83894 6.86607L2.03545 6.07909L1.29267 8.10486L3.07822 8.88401C2.90036 9.53593 2.77685 10.2134 2.71344 10.9102H0.664062V13.092H2.71344C2.77685 13.7887 2.90036 14.4662 3.07822 15.1181L1.29267 15.8973L2.03545 17.923L3.83894 17.1361C4.09079 17.6501 4.37927 18.1395 4.70058 18.6003L2.95696 20.5024L4.37117 22.0452L6.0648 20.1976C6.64069 20.7498 7.27526 21.231 7.95698 21.6285L7.23559 23.5959L9.09254 24.4062L9.80676 22.4583C10.4044 22.6524 11.0254 22.7871 11.6641 22.8563V25.092H13.6641V22.8563C14.3028 22.7871 14.9238 22.6524 15.5214 22.4583L16.2356 24.4062L18.0925 23.5959L17.3711 21.6285C17.9478 21.2923 18.4906 20.8962 18.9928 20.4479L20.457 22.0452L21.8712 20.5024L20.407 18.9051C20.8179 18.3573 21.181 17.7651 21.4892 17.1361L23.2927 17.923L24.0355 15.8973L22.2499 15.1181C22.4278 14.4662 22.5513 13.7887 22.6147 13.092H24.6641V10.9102H22.6147C22.5513 10.2134 22.4278 9.53594 22.2499 8.88401L24.0355 8.10486L23.2927 6.07909L21.4892 6.86607C21.1248 6.12237 20.6838 5.43011 20.1775 4.80187L21.8712 2.95427L20.457 1.41149L18.7133 3.31363C18.291 2.96311 17.8423 2.6484 17.3711 2.37366L18.0925 0.406219L16.2356 -0.404088L15.5214 1.54379ZM10.6641 12.0011C10.6641 10.7961 11.5595 9.81925 12.6641 9.81925C13.7686 9.81925 14.6641 10.7961 14.6641 12.0011C14.6641 13.2061 13.7686 14.1829 12.6641 14.1829C11.5595 14.1829 10.6641 13.2061 10.6641 12.0011Z" fill="#484851"/>
</g>
<defs>
<clipPath id="clip0_5594_75109">
<rect width="24" height="24" fill="white" transform="translate(0.75)"/>
</clipPath>
</defs>
</svg>
