<svg width="25" height="24" viewBox="0 0 25 24" fill="none" xmlns="http://www.w3.org/2000/svg">
<g clip-path="url(#clip0_5594_75114)">
<path fill-rule="evenodd" clip-rule="evenodd" d="M2.66406 -1.08984H1.66406V0.00106537V2.18288V3.27379H2.66406H3.66406V24.0011V25.092H4.66406H9.70606H10.7061H14.7061H15.7061H20.6641H21.6641V24.0011V3.27379H22.6641H23.6641V2.18288V0.00106537V-1.08984H22.6641H2.66406ZM19.6641 3.27379H5.66406V22.9102H9.70606V19.6374V18.5465H10.7061H14.7061H15.7061V19.6374V22.9102H19.6641V3.27379ZM11.7061 22.9102H13.7061V20.7283H11.7061V22.9102ZM7.70606 5.45561H8.70606H10.7061H11.7061V6.54652V8.72834V9.81925H10.7061H8.70606H7.70606V8.72834V6.54652V5.45561ZM14.6641 5.45561H13.6641V6.54652V8.72834V9.81925H14.6641H16.6641H17.6641V8.72834V6.54652V5.45561H16.6641H14.6641ZM7.70606 12.0011H8.70606H10.7061H11.7061V13.092V15.2738V16.3647H10.7061H8.70606H7.70606V15.2738V13.092V12.0011ZM13.6641 12.0011H14.6641H16.6641H17.6641V13.092V15.2738V16.3647H16.6641H14.6641H13.6641V15.2738V13.092V12.0011Z" fill="#484851"/>
</g>
<defs>
<clipPath id="clip0_5594_75114">
<rect width="24" height="24" fill="white" transform="translate(0.75)"/>
</clipPath>
</defs>
</svg>
