<svg width="25" height="24" viewBox="0 0 25 24" fill="none" xmlns="http://www.w3.org/2000/svg">
<g clip-path="url(#clip0_5594_75103)">
<path fill-rule="evenodd" clip-rule="evenodd" d="M1.75 0H0.75V1V6V7H1.75H2.75V23V24H3.75H21.75H22.75V23V7H23.75H24.75V6V1V0H23.75H1.75ZM20.75 7H4.75V22H20.75V7ZM22.75 5V2H2.75V5H3.75H21.75H22.75ZM8.75 9H9.75H15.75H16.75V10V14V15H15.75H9.75H8.75V14V10V9ZM10.75 11V13H14.75V11H10.75Z" fill="#484851"/>
</g>
<defs>
<clipPath id="clip0_5594_75103">
<rect width="24" height="24" fill="white" transform="translate(0.75)"/>
</clipPath>
</defs>
</svg>
