<svg width="25" height="24" viewBox="0 0 25 24" fill="none" xmlns="http://www.w3.org/2000/svg">
<g clip-path="url(#clip0_5594_75097)">
<g clip-path="url(#clip1_5594_75097)">
<path fill-rule="evenodd" clip-rule="evenodd" d="M0.75 2H1.75H14.75H15.75V3V7H19.75H20.2306L20.5309 7.37531L24.5309 12.3753L24.75 12.6492V13V18V19H23.75H21.624C21.1799 20.7252 19.6138 22 17.75 22C15.8862 22 14.3201 20.7252 13.876 19H10.624C10.1799 20.7252 8.61384 22 6.75 22C4.88616 22 3.32006 20.7252 2.87602 19H1.75H0.75V18V3V2ZM21.624 17H22.75V13.3508L19.2694 9H15.75V14.5351C16.3383 14.1948 17.0214 14 17.75 14C19.6138 14 21.1799 15.2748 21.624 17ZM2.87602 17C3.32006 15.2748 4.88616 14 6.75 14C8.61384 14 10.1799 15.2748 10.624 17H13.75V4H2.75V17H2.87602ZM4.75 18C4.75 16.8954 5.64543 16 6.75 16C7.85457 16 8.75 16.8954 8.75 18C8.75 19.1046 7.85457 20 6.75 20C5.64543 20 4.75 19.1046 4.75 18ZM17.75 16C16.6454 16 15.75 16.8954 15.75 18C15.75 19.1046 16.6454 20 17.75 20C18.8546 20 19.75 19.1046 19.75 18C19.75 16.8954 18.8546 16 17.75 16Z" fill="#484851"/>
</g>
</g>
<defs>
<clipPath id="clip0_5594_75097">
<rect width="24" height="24" fill="white" transform="translate(0.75)"/>
</clipPath>
<clipPath id="clip1_5594_75097">
<rect width="24" height="24" fill="white" transform="translate(0.75)"/>
</clipPath>
</defs>
</svg>
