<svg width="25" height="24" viewBox="0 0 25 24" fill="none" xmlns="http://www.w3.org/2000/svg">
<g clip-path="url(#clip0_5594_75091)">
<g clip-path="url(#clip1_5594_75091)">
<path fill-rule="evenodd" clip-rule="evenodd" d="M3.26943 2.69721C2.96543 3.3052 2.75 4.15168 2.75 5C2.75 6.90443 3.56135 8.28764 5.19721 9.10557L5.75 9.38197V10H4.75C5.75 10 5.75 10 5.75 10.0001V10.0005V10.001V10.0018V10.0028V10.0041V10.0056V10.0073V10.0092V10.0113V10.0137V10.0162V10.019V10.022V10.0253V10.0287V10.0324V10.0363V10.0403V10.0446V10.0492V10.0539V10.0588V10.064V10.0693V10.0749V10.0806V10.0866V10.0928V10.0992V10.1058V10.1125V10.1195V10.1267V10.1341V10.1417V10.1495V10.1575V10.1657V10.174V10.1826V10.1914V10.2003V10.2095V10.2188V10.2284V10.2381V10.248V10.2581V10.2684V10.2789V10.2895V10.3004V10.3114V10.3226V10.334V10.3456V10.3574V10.3693V10.3814V10.3937V10.4062V10.4188V10.4316V10.4446V10.4578V10.4711V10.4847V10.4983V10.5122V10.5262V10.5404V10.5548V10.5693V10.584V10.5989V10.6139V10.6291V10.6444V10.6599V10.6756V10.6914V10.7074V10.7236V10.7399V10.7564V10.773V10.7898V10.8067V10.8238V10.841V10.8584V10.8759V10.8936V10.9115V10.9294V10.9476V10.9659V10.9843V11.0028V11.0216V11.0404V11.0594V11.0786V11.0978V11.1173V11.1368V11.1565V11.1763V11.1963V11.2164V11.2367V11.257V11.2775V11.2982V11.319V11.3399V11.3609V11.382V11.4033V11.4247V11.4463V11.468V11.4897V11.5117V11.5337V11.5558V11.5781V11.6005V11.623V11.6457V11.6684V11.6913V11.7143V11.7374V11.7606V11.7839V11.8074V11.8309V11.8546V11.8784V11.9023V11.9262V11.9503V11.9746V11.9989V12.0233V12.0478V12.0724V12.0972V12.122V12.1469V12.1719V12.1971V12.2223V12.2476V12.273V12.2985V12.3242V12.3499V12.3756V12.4015V12.4275V12.4536V12.4797V12.506V12.5323V12.5588V12.5853V12.6119V12.6385V12.6653V12.6921V12.7191V12.7461V12.7732V12.8003V12.8276V12.8549V12.8823V12.9098V12.9373V12.965V12.9927V13.0204V13.0483V13.0762V13.1042V13.1322V13.1603V13.1885V13.2168V13.2451V13.2735V13.302V13.3305V13.3591V13.3877V13.4164V13.4451V13.474V13.5028V13.5318V13.5608V13.5898V13.6189V13.6481V13.6773V13.7065V13.7358V13.7652V13.7946V13.8241V13.8536V13.8831V13.9127V13.9424V13.9721V14.0018V14.0316V14.0614V14.0913V14.1212V14.1511V14.1811V14.2111V14.2412V14.2713V14.3014V14.3316V14.3617V14.392V14.4222V14.4525V14.4828V14.5132V14.5436V14.574V14.6044V14.6349V14.6653V14.6958V14.7264V14.7569V14.7875V14.8181V14.8487V14.8793V14.91V14.9407V14.9714V15.0021V15.0328V15.0635V15.0942V15.125V15.1558V15.1865V15.2173V15.2481V15.2789V15.3097V15.3406V15.3714V15.4022V15.433V15.4639V15.4947V15.5256V15.5564V15.5872V15.6181V15.6489V15.6797V15.7106V15.7414V15.7722V15.803V15.8338V15.8646V15.8954V15.9262V15.957V15.9877V16.0184V16.0492V16.0799V16.1106V16.1413V16.1719V16.2026V16.2332V16.2638V16.2944V16.325V16.3556V16.3861V16.4166V16.4471V16.4775V16.508V16.5384V16.5687V16.5991V16.6294V16.6597V16.69V16.7202V16.7504V16.7805V16.8107V16.8407V16.8708V16.9008V16.9308V16.9607V16.9906V17.0205V17.0503V17.0801V17.1098V17.1395V17.1691V17.1987V17.2283V17.2578V17.2873V17.3167V17.346V17.3753V17.4046V17.4338V17.463V17.492V17.5211V17.5501V17.579V17.6079V17.6367V17.6655V17.6942V17.7228V17.7514V17.7799V17.8083V17.8367V17.865V17.8933V17.9215V17.9496V17.9776V18.0056V18.0335V18.0614V18.0891V18.1168V18.1445V18.172V18.1995V18.2269V18.2542V18.2814V18.3086V18.3357V18.3627V18.3896V18.4164V18.4432V18.4699V18.4965V18.523V18.5494V18.5757V18.602V18.6281V18.6542V18.6802V18.706V18.7318V18.7575V18.7831V18.8086V18.8341V18.8594V18.8846V18.9097V18.9347V18.9597V18.9845V19.0092V19.0338V19.0583V19.0827V19.1071V19.1313V19.1553V19.1793V19.2032V19.227V19.2506V19.2742V19.2976V19.3209V19.3442V19.3673V19.3902V19.4131V19.4358V19.4585V19.481V19.5034V19.5257V19.5478V19.5698V19.5917V19.6135V19.6352V19.6567V19.6781V19.6994V19.7206V19.7416V19.7625V19.7832V19.8039V19.8244V19.8447V19.865V19.8851V19.905V19.9249V19.9445V19.9641V19.9835V20.0028V20.0219V20.0409V20.0598V20.0785V20.097V20.1154V20.1337V20.1518V20.1698V20.1876V20.2053V20.2229V20.2402V20.2575V20.2745V20.2915V20.3082V20.3248V20.3413V20.3576V20.3737V20.3897V20.4055V20.4212V20.4367V20.4521V20.4672V20.4823V20.4971V20.5118V20.5263V20.5407V20.5548V20.5689V20.5827V20.5964V20.6099V20.6232V20.6364V20.6494V20.6622V20.6748V20.6873V20.6996V20.7117V20.7236V20.7353V20.7469V20.7583V20.7695V20.7805V20.7914V20.802V20.8125V20.8228V20.8328V20.8427V20.8525V20.862V20.8713V20.8805V20.8894V20.8982V20.9067V20.9151V20.9233V20.9312V20.939V20.9466V20.954V20.9612V20.9681V20.9749V20.9815V20.9879V20.994V21C5.75 21.264 5.75158 21.4455 5.77248 21.6022C5.79229 21.7508 5.82185 21.805 5.83205 21.8203L5.83206 21.8203C5.83244 21.8211 5.84853 21.8542 5.9562 21.8961C6.08326 21.9455 6.32439 22 6.75 22C7.17561 22 7.41674 21.9455 7.5438 21.8961C7.65147 21.8542 7.66756 21.8211 7.66794 21.8203L7.66795 21.8203C7.67815 21.805 7.70771 21.7508 7.72752 21.6022C7.74842 21.4455 7.75 21.264 7.75 21V20.994V20.9879V20.9815V20.9749V20.9681V20.9612V20.954V20.9466V20.939V20.9312V20.9233V20.9151V20.9067V20.8982V20.8894V20.8805V20.8713V20.862V20.8525V20.8427V20.8328V20.8228V20.8125V20.802V20.7914V20.7805V20.7695V20.7583V20.7469V20.7353V20.7236V20.7117V20.6996V20.6873V20.6748V20.6622V20.6494V20.6364V20.6232V20.6099V20.5964V20.5827V20.5689V20.5548V20.5407V20.5263V20.5118V20.4971V20.4823V20.4672V20.4521V20.4367V20.4212V20.4055V20.3897V20.3737V20.3576V20.3413V20.3248V20.3082V20.2915V20.2745V20.2575V20.2402V20.2229V20.2053V20.1876V20.1698V20.1518V20.1337V20.1154V20.097V20.0785V20.0598V20.0409V20.0219V20.0028V19.9835V19.9641V19.9445V19.9249V19.905V19.8851V19.865V19.8447V19.8244V19.8039V19.7832V19.7625V19.7416V19.7206V19.6994V19.6781V19.6567V19.6352V19.6135V19.5917V19.5698V19.5478V19.5257V19.5034V19.481V19.4585V19.4358V19.4131V19.3902V19.3673V19.3442V19.3209V19.2976V19.2742V19.2506V19.227V19.2032V19.1793V19.1553V19.1313V19.1071V19.0827V19.0583V19.0338V19.0092V18.9845V18.9597V18.9347V18.9097V18.8846V18.8594V18.8341V18.8086V18.7831V18.7575V18.7318V18.706V18.6802V18.6542V18.6281V18.602V18.5757V18.5494V18.523V18.4965V18.4699V18.4432V18.4164V18.3896V18.3627V18.3357V18.3086V18.2814V18.2542V18.2269V18.1995V18.172V18.1445V18.1168V18.0891V18.0614V18.0335V18.0056V17.9776V17.9496V17.9215V17.8933V17.865V17.8367V17.8083V17.7799V17.7514V17.7228V17.6942V17.6655V17.6367V17.6079V17.579V17.5501V17.5211V17.492V17.463V17.4338V17.4046V17.3753V17.346V17.3167V17.2873V17.2578V17.2283V17.1987V17.1691V17.1395V17.1098V17.0801V17.0503V17.0205V16.9906V16.9607V16.9308V16.9008V16.8708V16.8407V16.8107V16.7805V16.7504V16.7202V16.69V16.6597V16.6294V16.5991V16.5687V16.5384V16.508V16.4775V16.4471V16.4166V16.3861V16.3556V16.325V16.2944V16.2638V16.2332V16.2026V16.1719V16.1413V16.1106V16.0799V16.0492V16.0184V15.9877V15.957V15.9262V15.8954V15.8646V15.8338V15.803V15.7722V15.7414V15.7106V15.6797V15.6489V15.6181V15.5872V15.5564V15.5256V15.4947V15.4639V15.433V15.4022V15.3714V15.3406V15.3097V15.2789V15.2481V15.2173V15.1865V15.1558V15.125V15.0942V15.0635V15.0328V15.0021V14.9714V14.9407V14.91V14.8793V14.8487V14.8181V14.7875V14.7569V14.7264V14.6958V14.6653V14.6349V14.6044V14.574V14.5436V14.5132V14.4828V14.4525V14.4222V14.392V14.3617V14.3316V14.3014V14.2713V14.2412V14.2111V14.1811V14.1511V14.1212V14.0913V14.0614V14.0316V14.0018V13.9721V13.9424V13.9127V13.8831V13.8536V13.8241V13.7946V13.7652V13.7358V13.7065V13.6773V13.6481V13.6189V13.5898V13.5608V13.5318V13.5028V13.474V13.4451V13.4164V13.3877V13.3591V13.3305V13.302V13.2735V13.2451V13.2168V13.1885V13.1603V13.1322V13.1042V13.0762V13.0483V13.0204V12.9927V12.965V12.9373V12.9098V12.8823V12.8549V12.8276V12.8003V12.7732V12.7461V12.7191V12.6921V12.6653V12.6385V12.6119V12.5853V12.5588V12.5323V12.506V12.4797V12.4536V12.4275V12.4015V12.3756V12.3499V12.3242V12.2985V12.273V12.2476V12.2223V12.1971V12.1719V12.1469V12.122V12.0972V12.0724V12.0478V12.0233V11.9989V11.9746V11.9503V11.9262V11.9023V11.8784V11.8546V11.8309V11.8074V11.7839V11.7606V11.7374V11.7143V11.6913V11.6684V11.6457V11.623V11.6005V11.5781V11.5558V11.5337V11.5117V11.4897V11.468V11.4463V11.4247V11.4033V11.382V11.3609V11.3399V11.319V11.2982V11.2775V11.257V11.2367V11.2164V11.1963V11.1763V11.1565V11.1368V11.1173V11.0978V11.0786V11.0594V11.0404V11.0216V11.0028V10.9843V10.9659V10.9476V10.9294V10.9115V10.8936V10.8759V10.8584V10.841V10.8238V10.8067V10.7898V10.773V10.7564V10.7399V10.7236V10.7074V10.6914V10.6756V10.6599V10.6444V10.6291V10.6139V10.5989V10.584V10.5693V10.5548V10.5404V10.5262V10.5122V10.4983V10.4847V10.4711V10.4578V10.4446V10.4316V10.4188V10.4062V10.3937V10.3814V10.3693V10.3574V10.3456V10.334V10.3226V10.3114V10.3004V10.2895V10.2789V10.2684V10.2581V10.248V10.2381V10.2284V10.2188V10.2095V10.2003V10.1914V10.1826V10.174V10.1657V10.1575V10.1495V10.1417V10.1341V10.1267V10.1195V10.1125V10.1058V10.0992V10.0928V10.0866V10.0806V10.0749V10.0693V10.064V10.0588V10.0539V10.0492V10.0446V10.0403V10.0363V10.0324V10.0287V10.0253V10.022V10.019V10.0162V10.0137V10.0113V10.0092V10.0073V10.0056V10.0041V10.0028V10.0018V10.001V10.0005V10.0001C7.75 10 7.75 10 8.75 10H7.75V9.38197L8.30279 9.10557C9.93865 8.28764 10.75 6.90443 10.75 5C10.75 4.15167 10.5346 3.3052 10.2306 2.69721C10.1939 2.62389 10.1571 2.5564 10.1207 2.4946L9.64443 3.44721L8.95693 4.82221L8.73036 5.27534L8.66689 5.40229L8.65016 5.43574L8.64588 5.44431L8.6458 5.44446L8.64554 5.44499L8.64524 5.44558L8.64479 5.44649L8.64463 5.4468L8.64452 5.44703L8.64445 5.44717L7.75 5L8.64443 5.44721L8.36803 6H7.75H5.75H5.13197L4.85557 5.44721L5.75 5L4.85555 5.44717L4.85548 5.44703L4.85537 5.4468L4.85521 5.44649L4.85412 5.44431L4.84984 5.43574L4.83311 5.40229L4.76964 5.27534L4.54307 4.82221L3.85557 3.44721L3.37926 2.4946C3.34286 2.5564 3.30609 2.62389 3.26943 2.69721ZM3.80895 1.99192L3.80654 1.99286C3.80815 1.99214 3.80895 1.99187 3.80895 1.99192ZM6.36803 4H7.13197L7.16807 3.92779L7.85557 2.55279L8.54307 1.17779L8.75 0.763932V0H9.75C10.3434 0 10.8257 0.29439 11.1667 0.612695C11.5133 0.93623 11.7967 1.3573 12.0194 1.80279C12.4654 2.6948 12.75 3.84833 12.75 5C12.75 7.3921 11.7466 9.36654 9.75 10.5883V10.5989V10.6139V10.6291V10.6444V10.6599V10.6756V10.6914V10.7074V10.7236V10.7399V10.7564V10.773V10.7898V10.8067V10.8238V10.841V10.8584V10.8759V10.8936V10.9115V10.9294V10.9476V10.9659V10.9843V11.0028V11.0216V11.0404V11.0594V11.0786V11.0978V11.1173V11.1368V11.1565V11.1763V11.1963V11.2164V11.2367V11.257V11.2775V11.2982V11.319V11.3399V11.3609V11.382V11.4033V11.4247V11.4463V11.468V11.4897V11.5117V11.5337V11.5558V11.5781V11.6005V11.623V11.6457V11.6684V11.6913V11.7143V11.7374V11.7606V11.7839V11.8074V11.8309V11.8546V11.8784V11.9023V11.9262V11.9503V11.9746V11.9989V12.0233V12.0478V12.0724V12.0972V12.122V12.1469V12.1719V12.1971V12.2223V12.2476V12.273V12.2985V12.3242V12.3499V12.3756V12.4015V12.4275V12.4536V12.4797V12.506V12.5323V12.5588V12.5853V12.6119V12.6385V12.6653V12.6921V12.7191V12.7461V12.7732V12.8003V12.8276V12.8549V12.8823V12.9098V12.9373V12.965V12.9927V13.0204V13.0483V13.0762V13.1042V13.1322V13.1603V13.1885V13.2168V13.2451V13.2735V13.302V13.3305V13.3591V13.3877V13.4164V13.4451V13.474V13.5028V13.5318V13.5608V13.5898V13.6189V13.6481V13.6773V13.7065V13.7358V13.7652V13.7946V13.8241V13.8536V13.8831V13.9127V13.9424V13.9721V14.0018V14.0316V14.0614V14.0913V14.1212V14.1511V14.1811V14.2111V14.2412V14.2713V14.3014V14.3316V14.3617V14.392V14.4222V14.4525V14.4828V14.5132V14.5436V14.574V14.6044V14.6349V14.6653V14.6958V14.7264V14.7569V14.7875V14.8181V14.8487V14.8793V14.91V14.9407V14.9714V15.0021V15.0328V15.0635V15.0942V15.125V15.1558V15.1865V15.2173V15.2481V15.2789V15.3097V15.3406V15.3714V15.4022V15.433V15.4639V15.4947V15.5256V15.5564V15.5872V15.6181V15.6489V15.6797V15.7106V15.7414V15.7722V15.803V15.8338V15.8646V15.8954V15.9262V15.957V15.9877V16.0184V16.0492V16.0799V16.1106V16.1413V16.1719V16.2026V16.2332V16.2638V16.2944V16.325V16.3556V16.3861V16.4166V16.4471V16.4775V16.508V16.5384V16.5687V16.5991V16.6294V16.6597V16.69V16.7202V16.7504V16.7805V16.8107V16.8407V16.8708V16.9008V16.9308V16.9607V16.9906V17.0205V17.0503V17.0801V17.1098V17.1395V17.1691V17.1987V17.2283V17.2578V17.2873V17.3167V17.346V17.3753V17.4046V17.4338V17.463V17.492V17.5211V17.5501V17.579V17.6079V17.6367V17.6655V17.6942V17.7228V17.7514V17.7799V17.8083V17.8367V17.865V17.8933V17.9215V17.9496V17.9776V18.0056V18.0335V18.0614V18.0891V18.1168V18.1445V18.172V18.1995V18.2269V18.2542V18.2814V18.3086V18.3357V18.3627V18.3896V18.4164V18.4432V18.4699V18.4965V18.523V18.5494V18.5757V18.602V18.6281V18.6542V18.6802V18.706V18.7318V18.7575V18.7831V18.8086V18.8341V18.8594V18.8846V18.9097V18.9347V18.9597V18.9845V19.0092V19.0338V19.0583V19.0827V19.1071V19.1313V19.1553V19.1793V19.2032V19.227V19.2506V19.2742V19.2976V19.3209V19.3442V19.3673V19.3902V19.4131V19.4358V19.4585V19.481V19.5034V19.5257V19.5478V19.5698V19.5917V19.6135V19.6352V19.6567V19.6781V19.6994V19.7206V19.7416V19.7625V19.7832V19.8039V19.8244V19.8447V19.865V19.8851V19.905V19.9249V19.9445V19.9641V19.9835V20.0028V20.0219V20.0409V20.0598V20.0785V20.097V20.1154V20.1337V20.1518V20.1698V20.1876V20.2053V20.2229V20.2402V20.2575V20.2745V20.2915V20.3082V20.3248V20.3413V20.3576V20.3737V20.3897V20.4055V20.4212V20.4367V20.4521V20.4672V20.4823V20.4971V20.5118V20.5263V20.5407V20.5548V20.5689V20.5827V20.5964V20.6099V20.6232V20.6364V20.6494V20.6622V20.6748V20.6873V20.6996V20.7117V20.7236V20.7353V20.7469V20.7583V20.7695V20.7805V20.7914V20.802V20.8125V20.8228V20.8328V20.8427V20.8525V20.862V20.8713V20.8805V20.8894V20.8982V20.9067V20.9151V20.9233V20.9312V20.939V20.9466V20.954V20.9612V20.9681V20.9749V20.9815V20.9879V20.994V21L9.75024 21.0787C9.75217 21.5136 9.75564 22.2943 9.33205 22.9297C8.80711 23.7171 7.88206 24 6.75 24C5.61794 24 4.69289 23.7171 4.16795 22.9297C3.74436 22.2943 3.74783 21.5136 3.74976 21.0787L3.75 21V20.994V20.9879V20.9815V20.9749V20.9681V20.9612V20.954V20.9466V20.939V20.9312V20.9233V20.9151V20.9067V20.8982V20.8894V20.8805V20.8713V20.862V20.8525V20.8427V20.8328V20.8228V20.8125V20.802V20.7914V20.7805V20.7695V20.7583V20.7469V20.7353V20.7236V20.7117V20.6996V20.6873V20.6748V20.6622V20.6494V20.6364V20.6232V20.6099V20.5964V20.5827V20.5689V20.5548V20.5407V20.5263V20.5118V20.4971V20.4823V20.4672V20.4521V20.4367V20.4212V20.4055V20.3897V20.3737V20.3576V20.3413V20.3248V20.3082V20.2915V20.2745V20.2575V20.2402V20.2229V20.2053V20.1876V20.1698V20.1518V20.1337V20.1154V20.097V20.0785V20.0598V20.0409V20.0219V20.0028V19.9835V19.9641V19.9445V19.9249V19.905V19.8851V19.865V19.8447V19.8244V19.8039V19.7832V19.7625V19.7416V19.7206V19.6994V19.6781V19.6567V19.6352V19.6135V19.5917V19.5698V19.5478V19.5257V19.5034V19.481V19.4585V19.4358V19.4131V19.3902V19.3673V19.3442V19.3209V19.2976V19.2742V19.2506V19.227V19.2032V19.1793V19.1553V19.1313V19.1071V19.0827V19.0583V19.0338V19.0092V18.9845V18.9597V18.9347V18.9097V18.8846V18.8594V18.8341V18.8086V18.7831V18.7575V18.7318V18.706V18.6802V18.6542V18.6281V18.602V18.5757V18.5494V18.523V18.4965V18.4699V18.4432V18.4164V18.3896V18.3627V18.3357V18.3086V18.2814V18.2542V18.2269V18.1995V18.172V18.1445V18.1168V18.0891V18.0614V18.0335V18.0056V17.9776V17.9496V17.9215V17.8933V17.865V17.8367V17.8083V17.7799V17.7514V17.7228V17.6942V17.6655V17.6367V17.6079V17.579V17.5501V17.5211V17.492V17.463V17.4338V17.4046V17.3753V17.346V17.3167V17.2873V17.2578V17.2283V17.1987V17.1691V17.1395V17.1098V17.0801V17.0503V17.0205V16.9906V16.9607V16.9308V16.9008V16.8708V16.8407V16.8107V16.7805V16.7504V16.7202V16.69V16.6597V16.6294V16.5991V16.5687V16.5384V16.508V16.4775V16.4471V16.4166V16.3861V16.3556V16.325V16.2944V16.2638V16.2332V16.2026V16.1719V16.1413V16.1106V16.0799V16.0492V16.0184V15.9877V15.957V15.9262V15.8954V15.8646V15.8338V15.803V15.7722V15.7414V15.7106V15.6797V15.6489V15.6181V15.5872V15.5564V15.5256V15.4947V15.4639V15.433V15.4022V15.3714V15.3406V15.3097V15.2789V15.2481V15.2173V15.1865V15.1558V15.125V15.0942V15.0635V15.0328V15.0021V14.9714V14.9407V14.91V14.8793V14.8487V14.8181V14.7875V14.7569V14.7264V14.6958V14.6653V14.6349V14.6044V14.574V14.5436V14.5132V14.4828V14.4525V14.4222V14.392V14.3617V14.3316V14.3014V14.2713V14.2412V14.2111V14.1811V14.1511V14.1212V14.0913V14.0614V14.0316V14.0018V13.9721V13.9424V13.9127V13.8831V13.8536V13.8241V13.7946V13.7652V13.7358V13.7065V13.6773V13.6481V13.6189V13.5898V13.5608V13.5318V13.5028V13.474V13.4451V13.4164V13.3877V13.3591V13.3305V13.302V13.2735V13.2451V13.2168V13.1885V13.1603V13.1322V13.1042V13.0762V13.0483V13.0204V12.9927V12.965V12.9373V12.9098V12.8823V12.8549V12.8276V12.8003V12.7732V12.7461V12.7191V12.6921V12.6653V12.6385V12.6119V12.5853V12.5588V12.5323V12.506V12.4797V12.4536V12.4275V12.4015V12.3756V12.3499V12.3242V12.2985V12.273V12.2476V12.2223V12.1971V12.1719V12.1469V12.122V12.0972V12.0724V12.0478V12.0233V11.9989V11.9746V11.9503V11.9262V11.9023V11.8784V11.8546V11.8309V11.8074V11.7839V11.7606V11.7374V11.7143V11.6913V11.6684V11.6457V11.623V11.6005V11.5781V11.5558V11.5337V11.5117V11.4897V11.468V11.4463V11.4247V11.4033V11.382V11.3609V11.3399V11.319V11.2982V11.2775V11.257V11.2367V11.2164V11.1963V11.1763V11.1565V11.1368V11.1173V11.0978V11.0786V11.0594V11.0404V11.0216V11.0028V10.9843V10.9659V10.9476V10.9294V10.9115V10.8936V10.8759V10.8584V10.841V10.8238V10.8067V10.7898V10.773V10.7564V10.7399V10.7236V10.7074V10.6914V10.6756V10.6599V10.6444V10.6291V10.6139V10.5989V10.5883C1.7534 9.36654 0.75 7.3921 0.75 5C0.75 3.84833 1.03457 2.6948 1.48057 1.80279C1.70332 1.3573 1.98666 0.936231 2.33331 0.612695C2.67435 0.29439 3.1566 0 3.75 0H4.75V0.763932L4.95693 1.17779L5.64443 2.55279L6.33193 3.92779L6.36803 4ZM9.69105 1.99192C9.69105 1.99187 9.69185 1.99214 9.69346 1.99286L9.69105 1.99192ZM18.75 17V13H14.75V11H16.75V3C16.75 1.34272 18.0927 0 19.75 0C21.4073 0 22.75 1.34272 22.75 3V11H24.75V13H20.75V17H21.75H22.9698L22.7306 18.1961L21.7306 23.1961L21.5698 24H20.75H18.75H17.9302L17.7694 23.1961L16.7694 18.1961L16.5302 17H17.75H18.75ZM20.75 11V3C20.75 2.44728 20.3027 2 19.75 2C19.1973 2 18.75 2.44728 18.75 3V11H20.75ZM19.5698 22L18.9698 19H20.5302L19.9302 22H19.5698Z" fill="#484851"/>
</g>
</g>
<defs>
<clipPath id="clip0_5594_75091">
<rect width="24" height="24" fill="white" transform="translate(0.75)"/>
</clipPath>
<clipPath id="clip1_5594_75091">
<rect width="24" height="24" fill="white" transform="translate(0.75)"/>
</clipPath>
</defs>
</svg>
